<?xml version="1.0" standalone="no"?>
 <!DOCTYPE svg PUBLIC "-//W3C//DTD SVG 1.1//EN" 
 "http://www.w3.org/Graphics/SVG/1.1/DTD/svg11.dtd"> 
<svg
  xmlns:svg="http://www.w3.org/2000/svg"
  xmlns="http://www.w3.org/2000/svg"
  xmlns:xlink="http://www.w3.org/1999/xlink"
  version="1.1"
  width="419.9890mm" height="297.0022mm" viewBox="0.0000 0.0000 419.9890 297.0022">
<title>SVG Image created as slider_rev_1_0-F_Silkscreen.svg date 2024/06/15 11:34:19 </title>
  <desc>Image generated by PCBNEW </desc>
<g style="fill:#000000; fill-opacity:1.0000;stroke:#000000; stroke-opacity:1.0000;
stroke-linecap:round; stroke-linejoin:round;"
 transform="translate(0 0) scale(1 1)">
</g>
<g style="fill:none; 
stroke:#000000; stroke-width:0.1500; stroke-opacity:1; 
stroke-linecap:round; stroke-linejoin:round;">
<path d="M299.9890 253.0022
L407.9890 253.0022
L407.9890 285.0022
L299.9890 285.0022
L299.9890 253.0022
" />
</g>
<g style="fill:none; 
stroke:#000000; stroke-width:0.1500; stroke-opacity:1; 
stroke-linecap:round; stroke-linejoin:round;">
<path d="M10.0000 10.0000
L409.9890 10.0000
L409.9890 287.0022
L10.0000 287.0022
L10.0000 10.0000
" />
</g>
<g style="fill:none; 
stroke:#000000; stroke-width:0.1500; stroke-opacity:1; 
stroke-linecap:round; stroke-linejoin:round;">
<path d="M12.0000 12.0000
L407.9890 12.0000
L407.9890 285.0022
L12.0000 285.0022
L12.0000 12.0000
" />
</g>
<g style="fill:none; 
stroke:#000000; stroke-width:0.1500; stroke-opacity:1; 
stroke-linecap:round; stroke-linejoin:round;">
<path d="M60.0000 12.0000
L60.0000 10.0000
" />
</g>
<g style="fill:none; 
stroke:#000000; stroke-width:0.1500; stroke-opacity:1; 
stroke-linecap:round; stroke-linejoin:round;">
<path d="M110.0000 12.0000
L110.0000 10.0000
" />
</g>
<g style="fill:none; 
stroke:#000000; stroke-width:0.1500; stroke-opacity:1; 
stroke-linecap:round; stroke-linejoin:round;">
<path d="M160.0000 12.0000
L160.0000 10.0000
" />
</g>
<g style="fill:none; 
stroke:#000000; stroke-width:0.1500; stroke-opacity:1; 
stroke-linecap:round; stroke-linejoin:round;">
<path d="M210.0000 12.0000
L210.0000 10.0000
" />
</g>
<g style="fill:none; 
stroke:#000000; stroke-width:0.1500; stroke-opacity:1; 
stroke-linecap:round; stroke-linejoin:round;">
<path d="M260.0000 12.0000
L260.0000 10.0000
" />
</g>
<g style="fill:none; 
stroke:#000000; stroke-width:0.1500; stroke-opacity:1; 
stroke-linecap:round; stroke-linejoin:round;">
<path d="M310.0000 12.0000
L310.0000 10.0000
" />
</g>
<g style="fill:none; 
stroke:#000000; stroke-width:0.1500; stroke-opacity:1; 
stroke-linecap:round; stroke-linejoin:round;">
<path d="M360.0000 12.0000
L360.0000 10.0000
" />
</g>
<g style="fill:none; 
stroke:#000000; stroke-width:0.1500; stroke-opacity:1; 
stroke-linecap:round; stroke-linejoin:round;">
<text x="35.0000" y="11.6500"
textLength="1.4281" font-size="1.7333" lengthAdjust="spacingAndGlyphs"
text-anchor="start" opacity="0">1</text>
<g class="stroked-text"><desc>1</desc>
<path d="M36.0892 11.5936
L35.3463 11.5936
" />
<path d="M35.7177 11.5936
L35.7177 10.2936
" />
<path d="M35.7177 10.2936
L35.5939 10.4793
" />
<path d="M35.5939 10.4793
L35.4701 10.6031
" />
<path d="M35.4701 10.6031
L35.3463 10.6650
" />
</g></g>
<g style="fill:none; 
stroke:#000000; stroke-width:0.1500; stroke-opacity:1; 
stroke-linecap:round; stroke-linejoin:round;">
<text x="85.0000" y="11.6500"
textLength="1.4281" font-size="1.7333" lengthAdjust="spacingAndGlyphs"
text-anchor="start" opacity="0">2</text>
<g class="stroked-text"><desc>2</desc>
<path d="M85.3463 10.4174
L85.4082 10.3555
" />
<path d="M85.4082 10.3555
L85.5320 10.2936
" />
<path d="M85.5320 10.2936
L85.8415 10.2936
" />
<path d="M85.8415 10.2936
L85.9654 10.3555
" />
<path d="M85.9654 10.3555
L86.0273 10.4174
" />
<path d="M86.0273 10.4174
L86.0892 10.5412
" />
<path d="M86.0892 10.5412
L86.0892 10.6650
" />
<path d="M86.0892 10.6650
L86.0273 10.8507
" />
<path d="M86.0273 10.8507
L85.2844 11.5936
" />
<path d="M85.2844 11.5936
L86.0892 11.5936
" />
</g></g>
<g style="fill:none; 
stroke:#000000; stroke-width:0.1500; stroke-opacity:1; 
stroke-linecap:round; stroke-linejoin:round;">
<text x="135.0000" y="11.6500"
textLength="1.4281" font-size="1.7333" lengthAdjust="spacingAndGlyphs"
text-anchor="start" opacity="0">3</text>
<g class="stroked-text"><desc>3</desc>
<path d="M135.2844 10.2936
L136.0892 10.2936
" />
<path d="M136.0892 10.2936
L135.6558 10.7888
" />
<path d="M135.6558 10.7888
L135.8415 10.7888
" />
<path d="M135.8415 10.7888
L135.9654 10.8507
" />
<path d="M135.9654 10.8507
L136.0273 10.9127
" />
<path d="M136.0273 10.9127
L136.0892 11.0365
" />
<path d="M136.0892 11.0365
L136.0892 11.3460
" />
<path d="M136.0892 11.3460
L136.0273 11.4698
" />
<path d="M136.0273 11.4698
L135.9654 11.5317
" />
<path d="M135.9654 11.5317
L135.8415 11.5936
" />
<path d="M135.8415 11.5936
L135.4701 11.5936
" />
<path d="M135.4701 11.5936
L135.3463 11.5317
" />
<path d="M135.3463 11.5317
L135.2844 11.4698
" />
</g></g>
<g style="fill:none; 
stroke:#000000; stroke-width:0.1500; stroke-opacity:1; 
stroke-linecap:round; stroke-linejoin:round;">
<text x="185.0000" y="11.6500"
textLength="1.4281" font-size="1.7333" lengthAdjust="spacingAndGlyphs"
text-anchor="start" opacity="0">4</text>
<g class="stroked-text"><desc>4</desc>
<path d="M185.9654 10.7269
L185.9654 11.5936
" />
<path d="M185.6558 10.2317
L185.3463 11.1603
" />
<path d="M185.3463 11.1603
L186.1511 11.1603
" />
</g></g>
<g style="fill:none; 
stroke:#000000; stroke-width:0.1500; stroke-opacity:1; 
stroke-linecap:round; stroke-linejoin:round;">
<text x="235.0000" y="11.6500"
textLength="1.4281" font-size="1.7333" lengthAdjust="spacingAndGlyphs"
text-anchor="start" opacity="0">5</text>
<g class="stroked-text"><desc>5</desc>
<path d="M236.0273 10.2936
L235.4082 10.2936
" />
<path d="M235.4082 10.2936
L235.3463 10.9127
" />
<path d="M235.3463 10.9127
L235.4082 10.8507
" />
<path d="M235.4082 10.8507
L235.5320 10.7888
" />
<path d="M235.5320 10.7888
L235.8415 10.7888
" />
<path d="M235.8415 10.7888
L235.9654 10.8507
" />
<path d="M235.9654 10.8507
L236.0273 10.9127
" />
<path d="M236.0273 10.9127
L236.0892 11.0365
" />
<path d="M236.0892 11.0365
L236.0892 11.3460
" />
<path d="M236.0892 11.3460
L236.0273 11.4698
" />
<path d="M236.0273 11.4698
L235.9654 11.5317
" />
<path d="M235.9654 11.5317
L235.8415 11.5936
" />
<path d="M235.8415 11.5936
L235.5320 11.5936
" />
<path d="M235.5320 11.5936
L235.4082 11.5317
" />
<path d="M235.4082 11.5317
L235.3463 11.4698
" />
</g></g>
<g style="fill:none; 
stroke:#000000; stroke-width:0.1500; stroke-opacity:1; 
stroke-linecap:round; stroke-linejoin:round;">
<text x="285.0000" y="11.6500"
textLength="1.4281" font-size="1.7333" lengthAdjust="spacingAndGlyphs"
text-anchor="start" opacity="0">6</text>
<g class="stroked-text"><desc>6</desc>
<path d="M285.9654 10.2936
L285.7177 10.2936
" />
<path d="M285.7177 10.2936
L285.5939 10.3555
" />
<path d="M285.5939 10.3555
L285.5320 10.4174
" />
<path d="M285.5320 10.4174
L285.4082 10.6031
" />
<path d="M285.4082 10.6031
L285.3463 10.8507
" />
<path d="M285.3463 10.8507
L285.3463 11.3460
" />
<path d="M285.3463 11.3460
L285.4082 11.4698
" />
<path d="M285.4082 11.4698
L285.4701 11.5317
" />
<path d="M285.4701 11.5317
L285.5939 11.5936
" />
<path d="M285.5939 11.5936
L285.8415 11.5936
" />
<path d="M285.8415 11.5936
L285.9654 11.5317
" />
<path d="M285.9654 11.5317
L286.0273 11.4698
" />
<path d="M286.0273 11.4698
L286.0892 11.3460
" />
<path d="M286.0892 11.3460
L286.0892 11.0365
" />
<path d="M286.0892 11.0365
L286.0273 10.9127
" />
<path d="M286.0273 10.9127
L285.9654 10.8507
" />
<path d="M285.9654 10.8507
L285.8415 10.7888
" />
<path d="M285.8415 10.7888
L285.5939 10.7888
" />
<path d="M285.5939 10.7888
L285.4701 10.8507
" />
<path d="M285.4701 10.8507
L285.4082 10.9127
" />
<path d="M285.4082 10.9127
L285.3463 11.0365
" />
</g></g>
<g style="fill:none; 
stroke:#000000; stroke-width:0.1500; stroke-opacity:1; 
stroke-linecap:round; stroke-linejoin:round;">
<text x="335.0000" y="11.6500"
textLength="1.4281" font-size="1.7333" lengthAdjust="spacingAndGlyphs"
text-anchor="start" opacity="0">7</text>
<g class="stroked-text"><desc>7</desc>
<path d="M335.2844 10.2936
L336.1511 10.2936
" />
<path d="M336.1511 10.2936
L335.5939 11.5936
" />
</g></g>
<g style="fill:none; 
stroke:#000000; stroke-width:0.1500; stroke-opacity:1; 
stroke-linecap:round; stroke-linejoin:round;">
<text x="385.0000" y="11.6500"
textLength="1.4281" font-size="1.7333" lengthAdjust="spacingAndGlyphs"
text-anchor="start" opacity="0">8</text>
<g class="stroked-text"><desc>8</desc>
<path d="M385.5939 10.8507
L385.4701 10.7888
" />
<path d="M385.4701 10.7888
L385.4082 10.7269
" />
<path d="M385.4082 10.7269
L385.3463 10.6031
" />
<path d="M385.3463 10.6031
L385.3463 10.5412
" />
<path d="M385.3463 10.5412
L385.4082 10.4174
" />
<path d="M385.4082 10.4174
L385.4701 10.3555
" />
<path d="M385.4701 10.3555
L385.5939 10.2936
" />
<path d="M385.5939 10.2936
L385.8415 10.2936
" />
<path d="M385.8415 10.2936
L385.9654 10.3555
" />
<path d="M385.9654 10.3555
L386.0273 10.4174
" />
<path d="M386.0273 10.4174
L386.0892 10.5412
" />
<path d="M386.0892 10.5412
L386.0892 10.6031
" />
<path d="M386.0892 10.6031
L386.0273 10.7269
" />
<path d="M386.0273 10.7269
L385.9654 10.7888
" />
<path d="M385.9654 10.7888
L385.8415 10.8507
" />
<path d="M385.8415 10.8507
L385.5939 10.8507
" />
<path d="M385.5939 10.8507
L385.4701 10.9127
" />
<path d="M385.4701 10.9127
L385.4082 10.9746
" />
<path d="M385.4082 10.9746
L385.3463 11.0984
" />
<path d="M385.3463 11.0984
L385.3463 11.3460
" />
<path d="M385.3463 11.3460
L385.4082 11.4698
" />
<path d="M385.4082 11.4698
L385.4701 11.5317
" />
<path d="M385.4701 11.5317
L385.5939 11.5936
" />
<path d="M385.5939 11.5936
L385.8415 11.5936
" />
<path d="M385.8415 11.5936
L385.9654 11.5317
" />
<path d="M385.9654 11.5317
L386.0273 11.4698
" />
<path d="M386.0273 11.4698
L386.0892 11.3460
" />
<path d="M386.0892 11.3460
L386.0892 11.0984
" />
<path d="M386.0892 11.0984
L386.0273 10.9746
" />
<path d="M386.0273 10.9746
L385.9654 10.9127
" />
<path d="M385.9654 10.9127
L385.8415 10.8507
" />
</g></g>
<g style="fill:none; 
stroke:#000000; stroke-width:0.1500; stroke-opacity:1; 
stroke-linecap:round; stroke-linejoin:round;">
<path d="M60.0000 285.0022
L60.0000 287.0022
" />
</g>
<g style="fill:none; 
stroke:#000000; stroke-width:0.1500; stroke-opacity:1; 
stroke-linecap:round; stroke-linejoin:round;">
<path d="M110.0000 285.0022
L110.0000 287.0022
" />
</g>
<g style="fill:none; 
stroke:#000000; stroke-width:0.1500; stroke-opacity:1; 
stroke-linecap:round; stroke-linejoin:round;">
<path d="M160.0000 285.0022
L160.0000 287.0022
" />
</g>
<g style="fill:none; 
stroke:#000000; stroke-width:0.1500; stroke-opacity:1; 
stroke-linecap:round; stroke-linejoin:round;">
<path d="M210.0000 285.0022
L210.0000 287.0022
" />
</g>
<g style="fill:none; 
stroke:#000000; stroke-width:0.1500; stroke-opacity:1; 
stroke-linecap:round; stroke-linejoin:round;">
<path d="M260.0000 285.0022
L260.0000 287.0022
" />
</g>
<g style="fill:none; 
stroke:#000000; stroke-width:0.1500; stroke-opacity:1; 
stroke-linecap:round; stroke-linejoin:round;">
<path d="M310.0000 285.0022
L310.0000 287.0022
" />
</g>
<g style="fill:none; 
stroke:#000000; stroke-width:0.1500; stroke-opacity:1; 
stroke-linecap:round; stroke-linejoin:round;">
<path d="M360.0000 285.0022
L360.0000 287.0022
" />
</g>
<g style="fill:none; 
stroke:#000000; stroke-width:0.1500; stroke-opacity:1; 
stroke-linecap:round; stroke-linejoin:round;">
<text x="35.0000" y="286.6522"
textLength="1.4281" font-size="1.7333" lengthAdjust="spacingAndGlyphs"
text-anchor="start" opacity="0">1</text>
<g class="stroked-text"><desc>1</desc>
<path d="M36.0892 286.5958
L35.3463 286.5958
" />
<path d="M35.7177 286.5958
L35.7177 285.2958
" />
<path d="M35.7177 285.2958
L35.5939 285.4815
" />
<path d="M35.5939 285.4815
L35.4701 285.6053
" />
<path d="M35.4701 285.6053
L35.3463 285.6672
" />
</g></g>
<g style="fill:none; 
stroke:#000000; stroke-width:0.1500; stroke-opacity:1; 
stroke-linecap:round; stroke-linejoin:round;">
<text x="85.0000" y="286.6522"
textLength="1.4281" font-size="1.7333" lengthAdjust="spacingAndGlyphs"
text-anchor="start" opacity="0">2</text>
<g class="stroked-text"><desc>2</desc>
<path d="M85.3463 285.4196
L85.4082 285.3577
" />
<path d="M85.4082 285.3577
L85.5320 285.2958
" />
<path d="M85.5320 285.2958
L85.8415 285.2958
" />
<path d="M85.8415 285.2958
L85.9654 285.3577
" />
<path d="M85.9654 285.3577
L86.0273 285.4196
" />
<path d="M86.0273 285.4196
L86.0892 285.5434
" />
<path d="M86.0892 285.5434
L86.0892 285.6672
" />
<path d="M86.0892 285.6672
L86.0273 285.8529
" />
<path d="M86.0273 285.8529
L85.2844 286.5958
" />
<path d="M85.2844 286.5958
L86.0892 286.5958
" />
</g></g>
<g style="fill:none; 
stroke:#000000; stroke-width:0.1500; stroke-opacity:1; 
stroke-linecap:round; stroke-linejoin:round;">
<text x="135.0000" y="286.6522"
textLength="1.4281" font-size="1.7333" lengthAdjust="spacingAndGlyphs"
text-anchor="start" opacity="0">3</text>
<g class="stroked-text"><desc>3</desc>
<path d="M135.2844 285.2958
L136.0892 285.2958
" />
<path d="M136.0892 285.2958
L135.6558 285.7910
" />
<path d="M135.6558 285.7910
L135.8415 285.7910
" />
<path d="M135.8415 285.7910
L135.9654 285.8529
" />
<path d="M135.9654 285.8529
L136.0273 285.9149
" />
<path d="M136.0273 285.9149
L136.0892 286.0387
" />
<path d="M136.0892 286.0387
L136.0892 286.3482
" />
<path d="M136.0892 286.3482
L136.0273 286.4720
" />
<path d="M136.0273 286.4720
L135.9654 286.5339
" />
<path d="M135.9654 286.5339
L135.8415 286.5958
" />
<path d="M135.8415 286.5958
L135.4701 286.5958
" />
<path d="M135.4701 286.5958
L135.3463 286.5339
" />
<path d="M135.3463 286.5339
L135.2844 286.4720
" />
</g></g>
<g style="fill:none; 
stroke:#000000; stroke-width:0.1500; stroke-opacity:1; 
stroke-linecap:round; stroke-linejoin:round;">
<text x="185.0000" y="286.6522"
textLength="1.4281" font-size="1.7333" lengthAdjust="spacingAndGlyphs"
text-anchor="start" opacity="0">4</text>
<g class="stroked-text"><desc>4</desc>
<path d="M185.9654 285.7291
L185.9654 286.5958
" />
<path d="M185.6558 285.2339
L185.3463 286.1625
" />
<path d="M185.3463 286.1625
L186.1511 286.1625
" />
</g></g>
<g style="fill:none; 
stroke:#000000; stroke-width:0.1500; stroke-opacity:1; 
stroke-linecap:round; stroke-linejoin:round;">
<text x="235.0000" y="286.6522"
textLength="1.4281" font-size="1.7333" lengthAdjust="spacingAndGlyphs"
text-anchor="start" opacity="0">5</text>
<g class="stroked-text"><desc>5</desc>
<path d="M236.0273 285.2958
L235.4082 285.2958
" />
<path d="M235.4082 285.2958
L235.3463 285.9149
" />
<path d="M235.3463 285.9149
L235.4082 285.8529
" />
<path d="M235.4082 285.8529
L235.5320 285.7910
" />
<path d="M235.5320 285.7910
L235.8415 285.7910
" />
<path d="M235.8415 285.7910
L235.9654 285.8529
" />
<path d="M235.9654 285.8529
L236.0273 285.9149
" />
<path d="M236.0273 285.9149
L236.0892 286.0387
" />
<path d="M236.0892 286.0387
L236.0892 286.3482
" />
<path d="M236.0892 286.3482
L236.0273 286.4720
" />
<path d="M236.0273 286.4720
L235.9654 286.5339
" />
<path d="M235.9654 286.5339
L235.8415 286.5958
" />
<path d="M235.8415 286.5958
L235.5320 286.5958
" />
<path d="M235.5320 286.5958
L235.4082 286.5339
" />
<path d="M235.4082 286.5339
L235.3463 286.4720
" />
</g></g>
<g style="fill:none; 
stroke:#000000; stroke-width:0.1500; stroke-opacity:1; 
stroke-linecap:round; stroke-linejoin:round;">
<text x="285.0000" y="286.6522"
textLength="1.4281" font-size="1.7333" lengthAdjust="spacingAndGlyphs"
text-anchor="start" opacity="0">6</text>
<g class="stroked-text"><desc>6</desc>
<path d="M285.9654 285.2958
L285.7177 285.2958
" />
<path d="M285.7177 285.2958
L285.5939 285.3577
" />
<path d="M285.5939 285.3577
L285.5320 285.4196
" />
<path d="M285.5320 285.4196
L285.4082 285.6053
" />
<path d="M285.4082 285.6053
L285.3463 285.8529
" />
<path d="M285.3463 285.8529
L285.3463 286.3482
" />
<path d="M285.3463 286.3482
L285.4082 286.4720
" />
<path d="M285.4082 286.4720
L285.4701 286.5339
" />
<path d="M285.4701 286.5339
L285.5939 286.5958
" />
<path d="M285.5939 286.5958
L285.8415 286.5958
" />
<path d="M285.8415 286.5958
L285.9654 286.5339
" />
<path d="M285.9654 286.5339
L286.0273 286.4720
" />
<path d="M286.0273 286.4720
L286.0892 286.3482
" />
<path d="M286.0892 286.3482
L286.0892 286.0387
" />
<path d="M286.0892 286.0387
L286.0273 285.9149
" />
<path d="M286.0273 285.9149
L285.9654 285.8529
" />
<path d="M285.9654 285.8529
L285.8415 285.7910
" />
<path d="M285.8415 285.7910
L285.5939 285.7910
" />
<path d="M285.5939 285.7910
L285.4701 285.8529
" />
<path d="M285.4701 285.8529
L285.4082 285.9149
" />
<path d="M285.4082 285.9149
L285.3463 286.0387
" />
</g></g>
<g style="fill:none; 
stroke:#000000; stroke-width:0.1500; stroke-opacity:1; 
stroke-linecap:round; stroke-linejoin:round;">
<text x="335.0000" y="286.6522"
textLength="1.4281" font-size="1.7333" lengthAdjust="spacingAndGlyphs"
text-anchor="start" opacity="0">7</text>
<g class="stroked-text"><desc>7</desc>
<path d="M335.2844 285.2958
L336.1511 285.2958
" />
<path d="M336.1511 285.2958
L335.5939 286.5958
" />
</g></g>
<g style="fill:none; 
stroke:#000000; stroke-width:0.1500; stroke-opacity:1; 
stroke-linecap:round; stroke-linejoin:round;">
<text x="385.0000" y="286.6522"
textLength="1.4281" font-size="1.7333" lengthAdjust="spacingAndGlyphs"
text-anchor="start" opacity="0">8</text>
<g class="stroked-text"><desc>8</desc>
<path d="M385.5939 285.8529
L385.4701 285.7910
" />
<path d="M385.4701 285.7910
L385.4082 285.7291
" />
<path d="M385.4082 285.7291
L385.3463 285.6053
" />
<path d="M385.3463 285.6053
L385.3463 285.5434
" />
<path d="M385.3463 285.5434
L385.4082 285.4196
" />
<path d="M385.4082 285.4196
L385.4701 285.3577
" />
<path d="M385.4701 285.3577
L385.5939 285.2958
" />
<path d="M385.5939 285.2958
L385.8415 285.2958
" />
<path d="M385.8415 285.2958
L385.9654 285.3577
" />
<path d="M385.9654 285.3577
L386.0273 285.4196
" />
<path d="M386.0273 285.4196
L386.0892 285.5434
" />
<path d="M386.0892 285.5434
L386.0892 285.6053
" />
<path d="M386.0892 285.6053
L386.0273 285.7291
" />
<path d="M386.0273 285.7291
L385.9654 285.7910
" />
<path d="M385.9654 285.7910
L385.8415 285.8529
" />
<path d="M385.8415 285.8529
L385.5939 285.8529
" />
<path d="M385.5939 285.8529
L385.4701 285.9149
" />
<path d="M385.4701 285.9149
L385.4082 285.9768
" />
<path d="M385.4082 285.9768
L385.3463 286.1006
" />
<path d="M385.3463 286.1006
L385.3463 286.3482
" />
<path d="M385.3463 286.3482
L385.4082 286.4720
" />
<path d="M385.4082 286.4720
L385.4701 286.5339
" />
<path d="M385.4701 286.5339
L385.5939 286.5958
" />
<path d="M385.5939 286.5958
L385.8415 286.5958
" />
<path d="M385.8415 286.5958
L385.9654 286.5339
" />
<path d="M385.9654 286.5339
L386.0273 286.4720
" />
<path d="M386.0273 286.4720
L386.0892 286.3482
" />
<path d="M386.0892 286.3482
L386.0892 286.1006
" />
<path d="M386.0892 286.1006
L386.0273 285.9768
" />
<path d="M386.0273 285.9768
L385.9654 285.9149
" />
<path d="M385.9654 285.9149
L385.8415 285.8529
" />
</g></g>
<g style="fill:none; 
stroke:#000000; stroke-width:0.1500; stroke-opacity:1; 
stroke-linecap:round; stroke-linejoin:round;">
<path d="M10.0000 60.0000
L12.0000 60.0000
" />
</g>
<g style="fill:none; 
stroke:#000000; stroke-width:0.1500; stroke-opacity:1; 
stroke-linecap:round; stroke-linejoin:round;">
<path d="M10.0000 110.0000
L12.0000 110.0000
" />
</g>
<g style="fill:none; 
stroke:#000000; stroke-width:0.1500; stroke-opacity:1; 
stroke-linecap:round; stroke-linejoin:round;">
<path d="M10.0000 160.0000
L12.0000 160.0000
" />
</g>
<g style="fill:none; 
stroke:#000000; stroke-width:0.1500; stroke-opacity:1; 
stroke-linecap:round; stroke-linejoin:round;">
<path d="M10.0000 210.0000
L12.0000 210.0000
" />
</g>
<g style="fill:none; 
stroke:#000000; stroke-width:0.1500; stroke-opacity:1; 
stroke-linecap:round; stroke-linejoin:round;">
<path d="M10.0000 260.0000
L12.0000 260.0000
" />
</g>
<g style="fill:none; 
stroke:#000000; stroke-width:0.1500; stroke-opacity:1; 
stroke-linecap:round; stroke-linejoin:round;">
<text x="11.0000" y="35.6500"
textLength="1.3043" font-size="1.7333" lengthAdjust="spacingAndGlyphs"
text-anchor="middle" opacity="0">A</text>
<g class="stroked-text"><desc>A</desc>
<path d="M10.6905 35.2222
L11.3095 35.2222
" />
<path d="M10.5667 35.5936
L11.0000 34.2936
" />
<path d="M11.0000 34.2936
L11.4333 35.5936
" />
</g></g>
<g style="fill:none; 
stroke:#000000; stroke-width:0.1500; stroke-opacity:1; 
stroke-linecap:round; stroke-linejoin:round;">
<text x="11.0000" y="85.6500"
textLength="1.4900" font-size="1.7333" lengthAdjust="spacingAndGlyphs"
text-anchor="middle" opacity="0">B</text>
<g class="stroked-text"><desc>B</desc>
<path d="M11.0929 84.9127
L11.2786 84.9746
" />
<path d="M11.2786 84.9746
L11.3405 85.0365
" />
<path d="M11.3405 85.0365
L11.4024 85.1603
" />
<path d="M11.4024 85.1603
L11.4024 85.3460
" />
<path d="M11.4024 85.3460
L11.3405 85.4698
" />
<path d="M11.3405 85.4698
L11.2786 85.5317
" />
<path d="M11.2786 85.5317
L11.1548 85.5936
" />
<path d="M11.1548 85.5936
L10.6595 85.5936
" />
<path d="M10.6595 85.5936
L10.6595 84.2936
" />
<path d="M10.6595 84.2936
L11.0929 84.2936
" />
<path d="M11.0929 84.2936
L11.2167 84.3555
" />
<path d="M11.2167 84.3555
L11.2786 84.4174
" />
<path d="M11.2786 84.4174
L11.3405 84.5412
" />
<path d="M11.3405 84.5412
L11.3405 84.6650
" />
<path d="M11.3405 84.6650
L11.2786 84.7888
" />
<path d="M11.2786 84.7888
L11.2167 84.8507
" />
<path d="M11.2167 84.8507
L11.0929 84.9127
" />
<path d="M11.0929 84.9127
L10.6595 84.9127
" />
</g></g>
<g style="fill:none; 
stroke:#000000; stroke-width:0.1500; stroke-opacity:1; 
stroke-linecap:round; stroke-linejoin:round;">
<text x="11.0000" y="135.6500"
textLength="1.4900" font-size="1.7333" lengthAdjust="spacingAndGlyphs"
text-anchor="middle" opacity="0">C</text>
<g class="stroked-text"><desc>C</desc>
<path d="M11.4024 135.4698
L11.3405 135.5317
" />
<path d="M11.3405 135.5317
L11.1548 135.5936
" />
<path d="M11.1548 135.5936
L11.0310 135.5936
" />
<path d="M11.0310 135.5936
L10.8452 135.5317
" />
<path d="M10.8452 135.5317
L10.7214 135.4079
" />
<path d="M10.7214 135.4079
L10.6595 135.2841
" />
<path d="M10.6595 135.2841
L10.5976 135.0365
" />
<path d="M10.5976 135.0365
L10.5976 134.8507
" />
<path d="M10.5976 134.8507
L10.6595 134.6031
" />
<path d="M10.6595 134.6031
L10.7214 134.4793
" />
<path d="M10.7214 134.4793
L10.8452 134.3555
" />
<path d="M10.8452 134.3555
L11.0310 134.2936
" />
<path d="M11.0310 134.2936
L11.1548 134.2936
" />
<path d="M11.1548 134.2936
L11.3405 134.3555
" />
<path d="M11.3405 134.3555
L11.4024 134.4174
" />
</g></g>
<g style="fill:none; 
stroke:#000000; stroke-width:0.1500; stroke-opacity:1; 
stroke-linecap:round; stroke-linejoin:round;">
<text x="11.0000" y="185.6500"
textLength="1.4900" font-size="1.7333" lengthAdjust="spacingAndGlyphs"
text-anchor="middle" opacity="0">D</text>
<g class="stroked-text"><desc>D</desc>
<path d="M10.6595 185.5936
L10.6595 184.2936
" />
<path d="M10.6595 184.2936
L10.9690 184.2936
" />
<path d="M10.9690 184.2936
L11.1548 184.3555
" />
<path d="M11.1548 184.3555
L11.2786 184.4793
" />
<path d="M11.2786 184.4793
L11.3405 184.6031
" />
<path d="M11.3405 184.6031
L11.4024 184.8507
" />
<path d="M11.4024 184.8507
L11.4024 185.0365
" />
<path d="M11.4024 185.0365
L11.3405 185.2841
" />
<path d="M11.3405 185.2841
L11.2786 185.4079
" />
<path d="M11.2786 185.4079
L11.1548 185.5317
" />
<path d="M11.1548 185.5317
L10.9690 185.5936
" />
<path d="M10.9690 185.5936
L10.6595 185.5936
" />
</g></g>
<g style="fill:none; 
stroke:#000000; stroke-width:0.1500; stroke-opacity:1; 
stroke-linecap:round; stroke-linejoin:round;">
<text x="11.0000" y="235.6500"
textLength="1.3662" font-size="1.7333" lengthAdjust="spacingAndGlyphs"
text-anchor="middle" opacity="0">E</text>
<g class="stroked-text"><desc>E</desc>
<path d="M10.7214 234.9127
L11.1548 234.9127
" />
<path d="M11.3405 235.5936
L10.7214 235.5936
" />
<path d="M10.7214 235.5936
L10.7214 234.2936
" />
<path d="M10.7214 234.2936
L11.3405 234.2936
" />
</g></g>
<g style="fill:none; 
stroke:#000000; stroke-width:0.1500; stroke-opacity:1; 
stroke-linecap:round; stroke-linejoin:round;">
<text x="11.0000" y="285.6500"
textLength="1.3043" font-size="1.7333" lengthAdjust="spacingAndGlyphs"
text-anchor="middle" opacity="0">F</text>
<g class="stroked-text"><desc>F</desc>
<path d="M11.1857 284.9127
L10.7524 284.9127
" />
<path d="M10.7524 285.5936
L10.7524 284.2936
" />
<path d="M10.7524 284.2936
L11.3714 284.2936
" />
</g></g>
<g style="fill:none; 
stroke:#000000; stroke-width:0.1500; stroke-opacity:1; 
stroke-linecap:round; stroke-linejoin:round;">
<path d="M409.9890 60.0000
L407.9890 60.0000
" />
</g>
<g style="fill:none; 
stroke:#000000; stroke-width:0.1500; stroke-opacity:1; 
stroke-linecap:round; stroke-linejoin:round;">
<path d="M409.9890 110.0000
L407.9890 110.0000
" />
</g>
<g style="fill:none; 
stroke:#000000; stroke-width:0.1500; stroke-opacity:1; 
stroke-linecap:round; stroke-linejoin:round;">
<path d="M409.9890 160.0000
L407.9890 160.0000
" />
</g>
<g style="fill:none; 
stroke:#000000; stroke-width:0.1500; stroke-opacity:1; 
stroke-linecap:round; stroke-linejoin:round;">
<path d="M409.9890 210.0000
L407.9890 210.0000
" />
</g>
<g style="fill:none; 
stroke:#000000; stroke-width:0.1500; stroke-opacity:1; 
stroke-linecap:round; stroke-linejoin:round;">
<path d="M409.9890 260.0000
L407.9890 260.0000
" />
</g>
<g style="fill:none; 
stroke:#000000; stroke-width:0.1500; stroke-opacity:1; 
stroke-linecap:round; stroke-linejoin:round;">
<text x="408.9890" y="35.6500"
textLength="1.3043" font-size="1.7333" lengthAdjust="spacingAndGlyphs"
text-anchor="middle" opacity="0">A</text>
<g class="stroked-text"><desc>A</desc>
<path d="M408.6795 35.2222
L409.2985 35.2222
" />
<path d="M408.5557 35.5936
L408.9890 34.2936
" />
<path d="M408.9890 34.2936
L409.4223 35.5936
" />
</g></g>
<g style="fill:none; 
stroke:#000000; stroke-width:0.1500; stroke-opacity:1; 
stroke-linecap:round; stroke-linejoin:round;">
<text x="408.9890" y="85.6500"
textLength="1.4900" font-size="1.7333" lengthAdjust="spacingAndGlyphs"
text-anchor="middle" opacity="0">B</text>
<g class="stroked-text"><desc>B</desc>
<path d="M409.0819 84.9127
L409.2676 84.9746
" />
<path d="M409.2676 84.9746
L409.3295 85.0365
" />
<path d="M409.3295 85.0365
L409.3914 85.1603
" />
<path d="M409.3914 85.1603
L409.3914 85.3460
" />
<path d="M409.3914 85.3460
L409.3295 85.4698
" />
<path d="M409.3295 85.4698
L409.2676 85.5317
" />
<path d="M409.2676 85.5317
L409.1438 85.5936
" />
<path d="M409.1438 85.5936
L408.6485 85.5936
" />
<path d="M408.6485 85.5936
L408.6485 84.2936
" />
<path d="M408.6485 84.2936
L409.0819 84.2936
" />
<path d="M409.0819 84.2936
L409.2057 84.3555
" />
<path d="M409.2057 84.3555
L409.2676 84.4174
" />
<path d="M409.2676 84.4174
L409.3295 84.5412
" />
<path d="M409.3295 84.5412
L409.3295 84.6650
" />
<path d="M409.3295 84.6650
L409.2676 84.7888
" />
<path d="M409.2676 84.7888
L409.2057 84.8507
" />
<path d="M409.2057 84.8507
L409.0819 84.9127
" />
<path d="M409.0819 84.9127
L408.6485 84.9127
" />
</g></g>
<g style="fill:none; 
stroke:#000000; stroke-width:0.1500; stroke-opacity:1; 
stroke-linecap:round; stroke-linejoin:round;">
<text x="408.9890" y="135.6500"
textLength="1.4900" font-size="1.7333" lengthAdjust="spacingAndGlyphs"
text-anchor="middle" opacity="0">C</text>
<g class="stroked-text"><desc>C</desc>
<path d="M409.3914 135.4698
L409.3295 135.5317
" />
<path d="M409.3295 135.5317
L409.1438 135.5936
" />
<path d="M409.1438 135.5936
L409.0200 135.5936
" />
<path d="M409.0200 135.5936
L408.8342 135.5317
" />
<path d="M408.8342 135.5317
L408.7104 135.4079
" />
<path d="M408.7104 135.4079
L408.6485 135.2841
" />
<path d="M408.6485 135.2841
L408.5866 135.0365
" />
<path d="M408.5866 135.0365
L408.5866 134.8507
" />
<path d="M408.5866 134.8507
L408.6485 134.6031
" />
<path d="M408.6485 134.6031
L408.7104 134.4793
" />
<path d="M408.7104 134.4793
L408.8342 134.3555
" />
<path d="M408.8342 134.3555
L409.0200 134.2936
" />
<path d="M409.0200 134.2936
L409.1438 134.2936
" />
<path d="M409.1438 134.2936
L409.3295 134.3555
" />
<path d="M409.3295 134.3555
L409.3914 134.4174
" />
</g></g>
<g style="fill:none; 
stroke:#000000; stroke-width:0.1500; stroke-opacity:1; 
stroke-linecap:round; stroke-linejoin:round;">
<text x="408.9890" y="185.6500"
textLength="1.4900" font-size="1.7333" lengthAdjust="spacingAndGlyphs"
text-anchor="middle" opacity="0">D</text>
<g class="stroked-text"><desc>D</desc>
<path d="M408.6485 185.5936
L408.6485 184.2936
" />
<path d="M408.6485 184.2936
L408.9580 184.2936
" />
<path d="M408.9580 184.2936
L409.1438 184.3555
" />
<path d="M409.1438 184.3555
L409.2676 184.4793
" />
<path d="M409.2676 184.4793
L409.3295 184.6031
" />
<path d="M409.3295 184.6031
L409.3914 184.8507
" />
<path d="M409.3914 184.8507
L409.3914 185.0365
" />
<path d="M409.3914 185.0365
L409.3295 185.2841
" />
<path d="M409.3295 185.2841
L409.2676 185.4079
" />
<path d="M409.2676 185.4079
L409.1438 185.5317
" />
<path d="M409.1438 185.5317
L408.9580 185.5936
" />
<path d="M408.9580 185.5936
L408.6485 185.5936
" />
</g></g>
<g style="fill:none; 
stroke:#000000; stroke-width:0.1500; stroke-opacity:1; 
stroke-linecap:round; stroke-linejoin:round;">
<text x="408.9890" y="235.6500"
textLength="1.3662" font-size="1.7333" lengthAdjust="spacingAndGlyphs"
text-anchor="middle" opacity="0">E</text>
<g class="stroked-text"><desc>E</desc>
<path d="M408.7104 234.9127
L409.1438 234.9127
" />
<path d="M409.3295 235.5936
L408.7104 235.5936
" />
<path d="M408.7104 235.5936
L408.7104 234.2936
" />
<path d="M408.7104 234.2936
L409.3295 234.2936
" />
</g></g>
<g style="fill:none; 
stroke:#000000; stroke-width:0.1500; stroke-opacity:1; 
stroke-linecap:round; stroke-linejoin:round;">
<text x="408.9890" y="285.6500"
textLength="1.3043" font-size="1.7333" lengthAdjust="spacingAndGlyphs"
text-anchor="middle" opacity="0">F</text>
<g class="stroked-text"><desc>F</desc>
<path d="M409.1747 284.9127
L408.7414 284.9127
" />
<path d="M408.7414 285.5936
L408.7414 284.2936
" />
<path d="M408.7414 284.2936
L409.3604 284.2936
" />
</g></g>
<g style="fill:none; 
stroke:#000000; stroke-width:0.1500; stroke-opacity:1; 
stroke-linecap:round; stroke-linejoin:round;">
<text x="322.9890" y="280.8522"
textLength="7.0071" font-size="2.0000" lengthAdjust="spacingAndGlyphs"
text-anchor="start" opacity="0">Date: </text>
<g class="stroked-text"><desc>Date: </desc>
<path d="M323.4448 280.7883
L323.4448 279.2883
" />
<path d="M323.4448 279.2883
L323.8020 279.2883
" />
<path d="M323.8020 279.2883
L324.0163 279.3598
" />
<path d="M324.0163 279.3598
L324.1591 279.5026
" />
<path d="M324.1591 279.5026
L324.2305 279.6455
" />
<path d="M324.2305 279.6455
L324.3020 279.9312
" />
<path d="M324.3020 279.9312
L324.3020 280.1455
" />
<path d="M324.3020 280.1455
L324.2305 280.4312
" />
<path d="M324.2305 280.4312
L324.1591 280.5740
" />
<path d="M324.1591 280.5740
L324.0163 280.7169
" />
<path d="M324.0163 280.7169
L323.8020 280.7883
" />
<path d="M323.8020 280.7883
L323.4448 280.7883
" />
<path d="M325.5877 280.7883
L325.5877 280.0026
" />
<path d="M325.5877 280.0026
L325.5163 279.8598
" />
<path d="M325.5163 279.8598
L325.3734 279.7883
" />
<path d="M325.3734 279.7883
L325.0877 279.7883
" />
<path d="M325.0877 279.7883
L324.9448 279.8598
" />
<path d="M325.5877 280.7169
L325.4448 280.7883
" />
<path d="M325.4448 280.7883
L325.0877 280.7883
" />
<path d="M325.0877 280.7883
L324.9448 280.7169
" />
<path d="M324.9448 280.7169
L324.8734 280.5740
" />
<path d="M324.8734 280.5740
L324.8734 280.4312
" />
<path d="M324.8734 280.4312
L324.9448 280.2883
" />
<path d="M324.9448 280.2883
L325.0877 280.2169
" />
<path d="M325.0877 280.2169
L325.4448 280.2169
" />
<path d="M325.4448 280.2169
L325.5877 280.1455
" />
<path d="M326.0877 279.7883
L326.6591 279.7883
" />
<path d="M326.3020 279.2883
L326.3020 280.5740
" />
<path d="M326.3020 280.5740
L326.3734 280.7169
" />
<path d="M326.3734 280.7169
L326.5163 280.7883
" />
<path d="M326.5163 280.7883
L326.6591 280.7883
" />
<path d="M327.7305 280.7169
L327.5877 280.7883
" />
<path d="M327.5877 280.7883
L327.3020 280.7883
" />
<path d="M327.3020 280.7883
L327.1591 280.7169
" />
<path d="M327.1591 280.7169
L327.0877 280.5740
" />
<path d="M327.0877 280.5740
L327.0877 280.0026
" />
<path d="M327.0877 280.0026
L327.1591 279.8598
" />
<path d="M327.1591 279.8598
L327.3020 279.7883
" />
<path d="M327.3020 279.7883
L327.5877 279.7883
" />
<path d="M327.5877 279.7883
L327.7305 279.8598
" />
<path d="M327.7305 279.8598
L327.8020 280.0026
" />
<path d="M327.8020 280.0026
L327.8020 280.1455
" />
<path d="M327.8020 280.1455
L327.0877 280.2883
" />
<path d="M328.4448 280.6455
L328.5163 280.7169
" />
<path d="M328.5163 280.7169
L328.4448 280.7883
" />
<path d="M328.4448 280.7883
L328.3734 280.7169
" />
<path d="M328.3734 280.7169
L328.4448 280.6455
" />
<path d="M328.4448 280.6455
L328.4448 280.7883
" />
<path d="M328.4448 279.8598
L328.5163 279.9312
" />
<path d="M328.5163 279.9312
L328.4448 280.0026
" />
<path d="M328.4448 280.0026
L328.3734 279.9312
" />
<path d="M328.3734 279.9312
L328.4448 279.8598
" />
<path d="M328.4448 279.8598
L328.4448 280.0026
" />
</g></g>
<g style="fill:none; 
stroke:#000000; stroke-width:0.1500; stroke-opacity:1; 
stroke-linecap:round; stroke-linejoin:round;">
<path d="M299.9890 281.5022
L407.9890 281.5022
" />
</g>
<g style="fill:none; 
stroke:#000000; stroke-width:0.1500; stroke-opacity:1; 
stroke-linecap:round; stroke-linejoin:round;">
<text x="300.9890" y="283.6522"
textLength="24.1500" font-size="2.0000" lengthAdjust="spacingAndGlyphs"
text-anchor="start" opacity="0">KiCad E.D.A. 8.0.2-1</text>
<g class="stroked-text"><desc>KiCad E.D.A. 8.0.2-1</desc>
<path d="M301.4448 283.5883
L301.4448 282.0883
" />
<path d="M302.3020 283.5883
L301.6591 282.7312
" />
<path d="M302.3020 282.0883
L301.4448 282.9455
" />
<path d="M302.9448 283.5883
L302.9448 282.5883
" />
<path d="M302.9448 282.0883
L302.8734 282.1598
" />
<path d="M302.8734 282.1598
L302.9448 282.2312
" />
<path d="M302.9448 282.2312
L303.0163 282.1598
" />
<path d="M303.0163 282.1598
L302.9448 282.0883
" />
<path d="M302.9448 282.0883
L302.9448 282.2312
" />
<path d="M304.5163 283.4455
L304.4448 283.5169
" />
<path d="M304.4448 283.5169
L304.2305 283.5883
" />
<path d="M304.2305 283.5883
L304.0877 283.5883
" />
<path d="M304.0877 283.5883
L303.8734 283.5169
" />
<path d="M303.8734 283.5169
L303.7305 283.3740
" />
<path d="M303.7305 283.3740
L303.6591 283.2312
" />
<path d="M303.6591 283.2312
L303.5877 282.9455
" />
<path d="M303.5877 282.9455
L303.5877 282.7312
" />
<path d="M303.5877 282.7312
L303.6591 282.4455
" />
<path d="M303.6591 282.4455
L303.7305 282.3026
" />
<path d="M303.7305 282.3026
L303.8734 282.1598
" />
<path d="M303.8734 282.1598
L304.0877 282.0883
" />
<path d="M304.0877 282.0883
L304.2305 282.0883
" />
<path d="M304.2305 282.0883
L304.4448 282.1598
" />
<path d="M304.4448 282.1598
L304.5163 282.2312
" />
<path d="M305.8020 283.5883
L305.8020 282.8026
" />
<path d="M305.8020 282.8026
L305.7305 282.6598
" />
<path d="M305.7305 282.6598
L305.5877 282.5883
" />
<path d="M305.5877 282.5883
L305.3020 282.5883
" />
<path d="M305.3020 282.5883
L305.1591 282.6598
" />
<path d="M305.8020 283.5169
L305.6591 283.5883
" />
<path d="M305.6591 283.5883
L305.3020 283.5883
" />
<path d="M305.3020 283.5883
L305.1591 283.5169
" />
<path d="M305.1591 283.5169
L305.0877 283.3740
" />
<path d="M305.0877 283.3740
L305.0877 283.2312
" />
<path d="M305.0877 283.2312
L305.1591 283.0883
" />
<path d="M305.1591 283.0883
L305.3020 283.0169
" />
<path d="M305.3020 283.0169
L305.6591 283.0169
" />
<path d="M305.6591 283.0169
L305.8020 282.9455
" />
<path d="M307.1591 283.5883
L307.1591 282.0883
" />
<path d="M307.1591 283.5169
L307.0163 283.5883
" />
<path d="M307.0163 283.5883
L306.7305 283.5883
" />
<path d="M306.7305 283.5883
L306.5877 283.5169
" />
<path d="M306.5877 283.5169
L306.5163 283.4455
" />
<path d="M306.5163 283.4455
L306.4448 283.3026
" />
<path d="M306.4448 283.3026
L306.4448 282.8740
" />
<path d="M306.4448 282.8740
L306.5163 282.7312
" />
<path d="M306.5163 282.7312
L306.5877 282.6598
" />
<path d="M306.5877 282.6598
L306.7305 282.5883
" />
<path d="M306.7305 282.5883
L307.0163 282.5883
" />
<path d="M307.0163 282.5883
L307.1591 282.6598
" />
<path d="M309.0163 282.8026
L309.5163 282.8026
" />
<path d="M309.7305 283.5883
L309.0163 283.5883
" />
<path d="M309.0163 283.5883
L309.0163 282.0883
" />
<path d="M309.0163 282.0883
L309.7305 282.0883
" />
<path d="M310.3734 283.4455
L310.4448 283.5169
" />
<path d="M310.4448 283.5169
L310.3734 283.5883
" />
<path d="M310.3734 283.5883
L310.3020 283.5169
" />
<path d="M310.3020 283.5169
L310.3734 283.4455
" />
<path d="M310.3734 283.4455
L310.3734 283.5883
" />
<path d="M311.0877 283.5883
L311.0877 282.0883
" />
<path d="M311.0877 282.0883
L311.4448 282.0883
" />
<path d="M311.4448 282.0883
L311.6591 282.1598
" />
<path d="M311.6591 282.1598
L311.8020 282.3026
" />
<path d="M311.8020 282.3026
L311.8734 282.4455
" />
<path d="M311.8734 282.4455
L311.9448 282.7312
" />
<path d="M311.9448 282.7312
L311.9448 282.9455
" />
<path d="M311.9448 282.9455
L311.8734 283.2312
" />
<path d="M311.8734 283.2312
L311.8020 283.3740
" />
<path d="M311.8020 283.3740
L311.6591 283.5169
" />
<path d="M311.6591 283.5169
L311.4448 283.5883
" />
<path d="M311.4448 283.5883
L311.0877 283.5883
" />
<path d="M312.5877 283.4455
L312.6591 283.5169
" />
<path d="M312.6591 283.5169
L312.5877 283.5883
" />
<path d="M312.5877 283.5883
L312.5163 283.5169
" />
<path d="M312.5163 283.5169
L312.5877 283.4455
" />
<path d="M312.5877 283.4455
L312.5877 283.5883
" />
<path d="M313.2305 283.1598
L313.9448 283.1598
" />
<path d="M313.0877 283.5883
L313.5877 282.0883
" />
<path d="M313.5877 282.0883
L314.0877 283.5883
" />
<path d="M314.5877 283.4455
L314.6591 283.5169
" />
<path d="M314.6591 283.5169
L314.5877 283.5883
" />
<path d="M314.5877 283.5883
L314.5163 283.5169
" />
<path d="M314.5163 283.5169
L314.5877 283.4455
" />
<path d="M314.5877 283.4455
L314.5877 283.5883
" />
<path d="M316.6591 282.7312
L316.5163 282.6598
" />
<path d="M316.5163 282.6598
L316.4448 282.5883
" />
<path d="M316.4448 282.5883
L316.3734 282.4455
" />
<path d="M316.3734 282.4455
L316.3734 282.3740
" />
<path d="M316.3734 282.3740
L316.4448 282.2312
" />
<path d="M316.4448 282.2312
L316.5163 282.1598
" />
<path d="M316.5163 282.1598
L316.6591 282.0883
" />
<path d="M316.6591 282.0883
L316.9448 282.0883
" />
<path d="M316.9448 282.0883
L317.0877 282.1598
" />
<path d="M317.0877 282.1598
L317.1591 282.2312
" />
<path d="M317.1591 282.2312
L317.2305 282.3740
" />
<path d="M317.2305 282.3740
L317.2305 282.4455
" />
<path d="M317.2305 282.4455
L317.1591 282.5883
" />
<path d="M317.1591 282.5883
L317.0877 282.6598
" />
<path d="M317.0877 282.6598
L316.9448 282.7312
" />
<path d="M316.9448 282.7312
L316.6591 282.7312
" />
<path d="M316.6591 282.7312
L316.5163 282.8026
" />
<path d="M316.5163 282.8026
L316.4448 282.8740
" />
<path d="M316.4448 282.8740
L316.3734 283.0169
" />
<path d="M316.3734 283.0169
L316.3734 283.3026
" />
<path d="M316.3734 283.3026
L316.4448 283.4455
" />
<path d="M316.4448 283.4455
L316.5163 283.5169
" />
<path d="M316.5163 283.5169
L316.6591 283.5883
" />
<path d="M316.6591 283.5883
L316.9448 283.5883
" />
<path d="M316.9448 283.5883
L317.0877 283.5169
" />
<path d="M317.0877 283.5169
L317.1591 283.4455
" />
<path d="M317.1591 283.4455
L317.2305 283.3026
" />
<path d="M317.2305 283.3026
L317.2305 283.0169
" />
<path d="M317.2305 283.0169
L317.1591 282.8740
" />
<path d="M317.1591 282.8740
L317.0877 282.8026
" />
<path d="M317.0877 282.8026
L316.9448 282.7312
" />
<path d="M317.8734 283.4455
L317.9448 283.5169
" />
<path d="M317.9448 283.5169
L317.8734 283.5883
" />
<path d="M317.8734 283.5883
L317.8020 283.5169
" />
<path d="M317.8020 283.5169
L317.8734 283.4455
" />
<path d="M317.8734 283.4455
L317.8734 283.5883
" />
<path d="M318.8734 282.0883
L319.0163 282.0883
" />
<path d="M319.0163 282.0883
L319.1591 282.1598
" />
<path d="M319.1591 282.1598
L319.2305 282.2312
" />
<path d="M319.2305 282.2312
L319.3020 282.3740
" />
<path d="M319.3020 282.3740
L319.3734 282.6598
" />
<path d="M319.3734 282.6598
L319.3734 283.0169
" />
<path d="M319.3734 283.0169
L319.3020 283.3026
" />
<path d="M319.3020 283.3026
L319.2305 283.4455
" />
<path d="M319.2305 283.4455
L319.1591 283.5169
" />
<path d="M319.1591 283.5169
L319.0163 283.5883
" />
<path d="M319.0163 283.5883
L318.8734 283.5883
" />
<path d="M318.8734 283.5883
L318.7305 283.5169
" />
<path d="M318.7305 283.5169
L318.6591 283.4455
" />
<path d="M318.6591 283.4455
L318.5877 283.3026
" />
<path d="M318.5877 283.3026
L318.5163 283.0169
" />
<path d="M318.5163 283.0169
L318.5163 282.6598
" />
<path d="M318.5163 282.6598
L318.5877 282.3740
" />
<path d="M318.5877 282.3740
L318.6591 282.2312
" />
<path d="M318.6591 282.2312
L318.7305 282.1598
" />
<path d="M318.7305 282.1598
L318.8734 282.0883
" />
<path d="M320.0163 283.4455
L320.0877 283.5169
" />
<path d="M320.0877 283.5169
L320.0163 283.5883
" />
<path d="M320.0163 283.5883
L319.9448 283.5169
" />
<path d="M319.9448 283.5169
L320.0163 283.4455
" />
<path d="M320.0163 283.4455
L320.0163 283.5883
" />
<path d="M320.6591 282.2312
L320.7305 282.1598
" />
<path d="M320.7305 282.1598
L320.8734 282.0883
" />
<path d="M320.8734 282.0883
L321.2305 282.0883
" />
<path d="M321.2305 282.0883
L321.3734 282.1598
" />
<path d="M321.3734 282.1598
L321.4448 282.2312
" />
<path d="M321.4448 282.2312
L321.5163 282.3740
" />
<path d="M321.5163 282.3740
L321.5163 282.5169
" />
<path d="M321.5163 282.5169
L321.4448 282.7312
" />
<path d="M321.4448 282.7312
L320.5877 283.5883
" />
<path d="M320.5877 283.5883
L321.5163 283.5883
" />
<path d="M322.1591 283.0169
L323.3020 283.0169
" />
<path d="M324.8020 283.5883
L323.9448 283.5883
" />
<path d="M324.3734 283.5883
L324.3734 282.0883
" />
<path d="M324.3734 282.0883
L324.2305 282.3026
" />
<path d="M324.2305 282.3026
L324.0877 282.4455
" />
<path d="M324.0877 282.4455
L323.9448 282.5169
" />
</g></g>
<g style="fill:none; 
stroke:#000000; stroke-width:0.1500; stroke-opacity:1; 
stroke-linecap:round; stroke-linejoin:round;">
<path d="M299.9890 278.5022
L407.9890 278.5022
" />
</g>
<g style="fill:none; 
stroke:#000000; stroke-width:0.3000; stroke-opacity:1; 
stroke-linecap:round; stroke-linejoin:round;">
<text x="385.9890" y="280.8522"
textLength="6.3857" font-size="2.0000" lengthAdjust="spacingAndGlyphs"
text-anchor="start" opacity="0">Rev: </text>
<g class="stroked-text"><desc>Rev: </desc>
<path d="M387.4007 280.7805
L386.9007 280.0662
" />
<path d="M386.5435 280.7805
L386.5435 279.2805
" />
<path d="M386.5435 279.2805
L387.1149 279.2805
" />
<path d="M387.1149 279.2805
L387.2578 279.3520
" />
<path d="M387.2578 279.3520
L387.3292 279.4234
" />
<path d="M387.3292 279.4234
L387.4007 279.5662
" />
<path d="M387.4007 279.5662
L387.4007 279.7805
" />
<path d="M387.4007 279.7805
L387.3292 279.9234
" />
<path d="M387.3292 279.9234
L387.2578 279.9948
" />
<path d="M387.2578 279.9948
L387.1149 280.0662
" />
<path d="M387.1149 280.0662
L386.5435 280.0662
" />
<path d="M388.6149 280.7091
L388.4721 280.7805
" />
<path d="M388.4721 280.7805
L388.1864 280.7805
" />
<path d="M388.1864 280.7805
L388.0435 280.7091
" />
<path d="M388.0435 280.7091
L387.9721 280.5662
" />
<path d="M387.9721 280.5662
L387.9721 279.9948
" />
<path d="M387.9721 279.9948
L388.0435 279.8520
" />
<path d="M388.0435 279.8520
L388.1864 279.7805
" />
<path d="M388.1864 279.7805
L388.4721 279.7805
" />
<path d="M388.4721 279.7805
L388.6149 279.8520
" />
<path d="M388.6149 279.8520
L388.6864 279.9948
" />
<path d="M388.6864 279.9948
L388.6864 280.1377
" />
<path d="M388.6864 280.1377
L387.9721 280.2805
" />
<path d="M389.1864 279.7805
L389.5435 280.7805
" />
<path d="M389.5435 280.7805
L389.9007 279.7805
" />
<path d="M390.4721 280.6377
L390.5435 280.7091
" />
<path d="M390.5435 280.7091
L390.4721 280.7805
" />
<path d="M390.4721 280.7805
L390.4007 280.7091
" />
<path d="M390.4007 280.7091
L390.4721 280.6377
" />
<path d="M390.4721 280.6377
L390.4721 280.7805
" />
<path d="M390.4721 279.8520
L390.5435 279.9234
" />
<path d="M390.5435 279.9234
L390.4721 279.9948
" />
<path d="M390.4721 279.9948
L390.4007 279.9234
" />
<path d="M390.4007 279.9234
L390.4721 279.8520
" />
<path d="M390.4721 279.8520
L390.4721 279.9948
" />
</g></g>
<g style="fill:none; 
stroke:#000000; stroke-width:0.1500; stroke-opacity:1; 
stroke-linecap:round; stroke-linejoin:round;">
<text x="300.9890" y="280.8522"
textLength="9.3643" font-size="2.0000" lengthAdjust="spacingAndGlyphs"
text-anchor="start" opacity="0">Size: A3</text>
<g class="stroked-text"><desc>Size: A3</desc>
<path d="M301.3734 280.7169
L301.5877 280.7883
" />
<path d="M301.5877 280.7883
L301.9448 280.7883
" />
<path d="M301.9448 280.7883
L302.0877 280.7169
" />
<path d="M302.0877 280.7169
L302.1591 280.6455
" />
<path d="M302.1591 280.6455
L302.2305 280.5026
" />
<path d="M302.2305 280.5026
L302.2305 280.3598
" />
<path d="M302.2305 280.3598
L302.1591 280.2169
" />
<path d="M302.1591 280.2169
L302.0877 280.1455
" />
<path d="M302.0877 280.1455
L301.9448 280.0740
" />
<path d="M301.9448 280.0740
L301.6591 280.0026
" />
<path d="M301.6591 280.0026
L301.5163 279.9312
" />
<path d="M301.5163 279.9312
L301.4448 279.8598
" />
<path d="M301.4448 279.8598
L301.3734 279.7169
" />
<path d="M301.3734 279.7169
L301.3734 279.5740
" />
<path d="M301.3734 279.5740
L301.4448 279.4312
" />
<path d="M301.4448 279.4312
L301.5163 279.3598
" />
<path d="M301.5163 279.3598
L301.6591 279.2883
" />
<path d="M301.6591 279.2883
L302.0163 279.2883
" />
<path d="M302.0163 279.2883
L302.2305 279.3598
" />
<path d="M302.8734 280.7883
L302.8734 279.7883
" />
<path d="M302.8734 279.2883
L302.8020 279.3598
" />
<path d="M302.8020 279.3598
L302.8734 279.4312
" />
<path d="M302.8734 279.4312
L302.9448 279.3598
" />
<path d="M302.9448 279.3598
L302.8734 279.2883
" />
<path d="M302.8734 279.2883
L302.8734 279.4312
" />
<path d="M303.4448 279.7883
L304.2305 279.7883
" />
<path d="M304.2305 279.7883
L303.4448 280.7883
" />
<path d="M303.4448 280.7883
L304.2305 280.7883
" />
<path d="M305.3734 280.7169
L305.2305 280.7883
" />
<path d="M305.2305 280.7883
L304.9448 280.7883
" />
<path d="M304.9448 280.7883
L304.8020 280.7169
" />
<path d="M304.8020 280.7169
L304.7305 280.5740
" />
<path d="M304.7305 280.5740
L304.7305 280.0026
" />
<path d="M304.7305 280.0026
L304.8020 279.8598
" />
<path d="M304.8020 279.8598
L304.9448 279.7883
" />
<path d="M304.9448 279.7883
L305.2305 279.7883
" />
<path d="M305.2305 279.7883
L305.3734 279.8598
" />
<path d="M305.3734 279.8598
L305.4448 280.0026
" />
<path d="M305.4448 280.0026
L305.4448 280.1455
" />
<path d="M305.4448 280.1455
L304.7305 280.2883
" />
<path d="M306.0877 280.6455
L306.1591 280.7169
" />
<path d="M306.1591 280.7169
L306.0877 280.7883
" />
<path d="M306.0877 280.7883
L306.0163 280.7169
" />
<path d="M306.0163 280.7169
L306.0877 280.6455
" />
<path d="M306.0877 280.6455
L306.0877 280.7883
" />
<path d="M306.0877 279.8598
L306.1591 279.9312
" />
<path d="M306.1591 279.9312
L306.0877 280.0026
" />
<path d="M306.0877 280.0026
L306.0163 279.9312
" />
<path d="M306.0163 279.9312
L306.0877 279.8598
" />
<path d="M306.0877 279.8598
L306.0877 280.0026
" />
<path d="M307.8734 280.3598
L308.5877 280.3598
" />
<path d="M307.7305 280.7883
L308.2305 279.2883
" />
<path d="M308.2305 279.2883
L308.7305 280.7883
" />
<path d="M309.0877 279.2883
L310.0163 279.2883
" />
<path d="M310.0163 279.2883
L309.5163 279.8598
" />
<path d="M309.5163 279.8598
L309.7305 279.8598
" />
<path d="M309.7305 279.8598
L309.8734 279.9312
" />
<path d="M309.8734 279.9312
L309.9448 280.0026
" />
<path d="M309.9448 280.0026
L310.0163 280.1455
" />
<path d="M310.0163 280.1455
L310.0163 280.5026
" />
<path d="M310.0163 280.5026
L309.9448 280.6455
" />
<path d="M309.9448 280.6455
L309.8734 280.7169
" />
<path d="M309.8734 280.7169
L309.7305 280.7883
" />
<path d="M309.7305 280.7883
L309.3020 280.7883
" />
<path d="M309.3020 280.7883
L309.1591 280.7169
" />
<path d="M309.1591 280.7169
L309.0877 280.6455
" />
</g></g>
<g style="fill:none; 
stroke:#000000; stroke-width:0.1500; stroke-opacity:1; 
stroke-linecap:round; stroke-linejoin:round;">
<text x="385.9890" y="283.6522"
textLength="8.5071" font-size="2.0000" lengthAdjust="spacingAndGlyphs"
text-anchor="start" opacity="0">Id: 1/1</text>
<g class="stroked-text"><desc>Id: 1/1</desc>
<path d="M386.4448 283.5883
L386.4448 282.0883
" />
<path d="M387.8020 283.5883
L387.8020 282.0883
" />
<path d="M387.8020 283.5169
L387.6591 283.5883
" />
<path d="M387.6591 283.5883
L387.3734 283.5883
" />
<path d="M387.3734 283.5883
L387.2305 283.5169
" />
<path d="M387.2305 283.5169
L387.1591 283.4455
" />
<path d="M387.1591 283.4455
L387.0877 283.3026
" />
<path d="M387.0877 283.3026
L387.0877 282.8740
" />
<path d="M387.0877 282.8740
L387.1591 282.7312
" />
<path d="M387.1591 282.7312
L387.2305 282.6598
" />
<path d="M387.2305 282.6598
L387.3734 282.5883
" />
<path d="M387.3734 282.5883
L387.6591 282.5883
" />
<path d="M387.6591 282.5883
L387.8020 282.6598
" />
<path d="M388.5163 283.4455
L388.5877 283.5169
" />
<path d="M388.5877 283.5169
L388.5163 283.5883
" />
<path d="M388.5163 283.5883
L388.4448 283.5169
" />
<path d="M388.4448 283.5169
L388.5163 283.4455
" />
<path d="M388.5163 283.4455
L388.5163 283.5883
" />
<path d="M388.5163 282.6598
L388.5877 282.7312
" />
<path d="M388.5877 282.7312
L388.5163 282.8026
" />
<path d="M388.5163 282.8026
L388.4448 282.7312
" />
<path d="M388.4448 282.7312
L388.5163 282.6598
" />
<path d="M388.5163 282.6598
L388.5163 282.8026
" />
<path d="M391.1591 283.5883
L390.3020 283.5883
" />
<path d="M390.7305 283.5883
L390.7305 282.0883
" />
<path d="M390.7305 282.0883
L390.5877 282.3026
" />
<path d="M390.5877 282.3026
L390.4448 282.4455
" />
<path d="M390.4448 282.4455
L390.3020 282.5169
" />
<path d="M392.8734 282.0169
L391.5877 283.9455
" />
<path d="M394.1591 283.5883
L393.3020 283.5883
" />
<path d="M393.7305 283.5883
L393.7305 282.0883
" />
<path d="M393.7305 282.0883
L393.5877 282.3026
" />
<path d="M393.5877 282.3026
L393.4448 282.4455
" />
<path d="M393.4448 282.4455
L393.3020 282.5169
" />
</g></g>
<g style="fill:none; 
stroke:#000000; stroke-width:0.1500; stroke-opacity:1; 
stroke-linecap:round; stroke-linejoin:round;">
<path d="M299.9890 274.5022
L407.9890 274.5022
" />
</g>
<g style="fill:none; 
stroke:#000000; stroke-width:0.4000; stroke-opacity:1; 
stroke-linecap:round; stroke-linejoin:round;">
<text x="300.9890" y="277.3022"
textLength="9.6571" font-size="2.6667" lengthAdjust="spacingAndGlyphs"
text-anchor="start" opacity="0">Title: </text>
<g class="stroked-text"><desc>Title: </desc>
<path d="M301.6807 275.2066
L302.8236 275.2066
" />
<path d="M302.0022 277.2066
L302.2522 275.2066
" />
<path d="M303.2403 277.2066
L303.4069 275.8733
" />
<path d="M303.4903 275.2066
L303.3831 275.3019
" />
<path d="M303.3831 275.3019
L303.4664 275.3971
" />
<path d="M303.4664 275.3971
L303.5736 275.3019
" />
<path d="M303.5736 275.3019
L303.4903 275.2066
" />
<path d="M303.4903 275.2066
L303.4664 275.3971
" />
<path d="M304.0736 275.8733
L304.8355 275.8733
" />
<path d="M304.4426 275.2066
L304.2283 276.9209
" />
<path d="M304.2283 276.9209
L304.2998 277.1114
" />
<path d="M304.2998 277.1114
L304.4783 277.2066
" />
<path d="M304.4783 277.2066
L304.6688 277.2066
" />
<path d="M305.6212 277.2066
L305.4426 277.1114
" />
<path d="M305.4426 277.1114
L305.3712 276.9209
" />
<path d="M305.3712 276.9209
L305.5855 275.2066
" />
<path d="M307.1569 277.1114
L306.9545 277.2066
" />
<path d="M306.9545 277.2066
L306.5736 277.2066
" />
<path d="M306.5736 277.2066
L306.3950 277.1114
" />
<path d="M306.3950 277.1114
L306.3236 276.9209
" />
<path d="M306.3236 276.9209
L306.4188 276.1590
" />
<path d="M306.4188 276.1590
L306.5379 275.9685
" />
<path d="M306.5379 275.9685
L306.7403 275.8733
" />
<path d="M306.7403 275.8733
L307.1212 275.8733
" />
<path d="M307.1212 275.8733
L307.2998 275.9685
" />
<path d="M307.2998 275.9685
L307.3712 276.1590
" />
<path d="M307.3712 276.1590
L307.3474 276.3495
" />
<path d="M307.3474 276.3495
L306.3712 276.5400
" />
<path d="M308.1212 277.0162
L308.2045 277.1114
" />
<path d="M308.2045 277.1114
L308.0974 277.2066
" />
<path d="M308.0974 277.2066
L308.0141 277.1114
" />
<path d="M308.0141 277.1114
L308.1212 277.0162
" />
<path d="M308.1212 277.0162
L308.0974 277.2066
" />
<path d="M308.2522 275.9685
L308.3355 276.0638
" />
<path d="M308.3355 276.0638
L308.2283 276.1590
" />
<path d="M308.2283 276.1590
L308.1450 276.0638
" />
<path d="M308.1450 276.0638
L308.2522 275.9685
" />
<path d="M308.2522 275.9685
L308.2283 276.1590
" />
</g></g>
<g style="fill:none; 
stroke:#000000; stroke-width:0.1500; stroke-opacity:1; 
stroke-linecap:round; stroke-linejoin:round;">
<text x="300.9890" y="273.4522"
textLength="33.7929" font-size="2.0000" lengthAdjust="spacingAndGlyphs"
text-anchor="start" opacity="0">File: slider_rev_1_0.kicad_pcb</text>
<g class="stroked-text"><desc>File: slider_rev_1_0.kicad_pcb</desc>
<path d="M301.9448 272.6026
L301.4448 272.6026
" />
<path d="M301.4448 273.3883
L301.4448 271.8883
" />
<path d="M301.4448 271.8883
L302.1591 271.8883
" />
<path d="M302.7305 273.3883
L302.7305 272.3883
" />
<path d="M302.7305 271.8883
L302.6591 271.9598
" />
<path d="M302.6591 271.9598
L302.7305 272.0312
" />
<path d="M302.7305 272.0312
L302.8020 271.9598
" />
<path d="M302.8020 271.9598
L302.7305 271.8883
" />
<path d="M302.7305 271.8883
L302.7305 272.0312
" />
<path d="M303.6591 273.3883
L303.5163 273.3169
" />
<path d="M303.5163 273.3169
L303.4448 273.1740
" />
<path d="M303.4448 273.1740
L303.4448 271.8883
" />
<path d="M304.8020 273.3169
L304.6591 273.3883
" />
<path d="M304.6591 273.3883
L304.3734 273.3883
" />
<path d="M304.3734 273.3883
L304.2305 273.3169
" />
<path d="M304.2305 273.3169
L304.1591 273.1740
" />
<path d="M304.1591 273.1740
L304.1591 272.6026
" />
<path d="M304.1591 272.6026
L304.2305 272.4598
" />
<path d="M304.2305 272.4598
L304.3734 272.3883
" />
<path d="M304.3734 272.3883
L304.6591 272.3883
" />
<path d="M304.6591 272.3883
L304.8020 272.4598
" />
<path d="M304.8020 272.4598
L304.8734 272.6026
" />
<path d="M304.8734 272.6026
L304.8734 272.7455
" />
<path d="M304.8734 272.7455
L304.1591 272.8883
" />
<path d="M305.5163 273.2455
L305.5877 273.3169
" />
<path d="M305.5877 273.3169
L305.5163 273.3883
" />
<path d="M305.5163 273.3883
L305.4448 273.3169
" />
<path d="M305.4448 273.3169
L305.5163 273.2455
" />
<path d="M305.5163 273.2455
L305.5163 273.3883
" />
<path d="M305.5163 272.4598
L305.5877 272.5312
" />
<path d="M305.5877 272.5312
L305.5163 272.6026
" />
<path d="M305.5163 272.6026
L305.4448 272.5312
" />
<path d="M305.4448 272.5312
L305.5163 272.4598
" />
<path d="M305.5163 272.4598
L305.5163 272.6026
" />
<path d="M307.3020 273.3169
L307.4448 273.3883
" />
<path d="M307.4448 273.3883
L307.7305 273.3883
" />
<path d="M307.7305 273.3883
L307.8734 273.3169
" />
<path d="M307.8734 273.3169
L307.9448 273.1740
" />
<path d="M307.9448 273.1740
L307.9448 273.1026
" />
<path d="M307.9448 273.1026
L307.8734 272.9598
" />
<path d="M307.8734 272.9598
L307.7305 272.8883
" />
<path d="M307.7305 272.8883
L307.5163 272.8883
" />
<path d="M307.5163 272.8883
L307.3734 272.8169
" />
<path d="M307.3734 272.8169
L307.3020 272.6740
" />
<path d="M307.3020 272.6740
L307.3020 272.6026
" />
<path d="M307.3020 272.6026
L307.3734 272.4598
" />
<path d="M307.3734 272.4598
L307.5163 272.3883
" />
<path d="M307.5163 272.3883
L307.7305 272.3883
" />
<path d="M307.7305 272.3883
L307.8734 272.4598
" />
<path d="M308.8020 273.3883
L308.6591 273.3169
" />
<path d="M308.6591 273.3169
L308.5877 273.1740
" />
<path d="M308.5877 273.1740
L308.5877 271.8883
" />
<path d="M309.3734 273.3883
L309.3734 272.3883
" />
<path d="M309.3734 271.8883
L309.3020 271.9598
" />
<path d="M309.3020 271.9598
L309.3734 272.0312
" />
<path d="M309.3734 272.0312
L309.4448 271.9598
" />
<path d="M309.4448 271.9598
L309.3734 271.8883
" />
<path d="M309.3734 271.8883
L309.3734 272.0312
" />
<path d="M310.7305 273.3883
L310.7305 271.8883
" />
<path d="M310.7305 273.3169
L310.5877 273.3883
" />
<path d="M310.5877 273.3883
L310.3020 273.3883
" />
<path d="M310.3020 273.3883
L310.1591 273.3169
" />
<path d="M310.1591 273.3169
L310.0877 273.2455
" />
<path d="M310.0877 273.2455
L310.0163 273.1026
" />
<path d="M310.0163 273.1026
L310.0163 272.6740
" />
<path d="M310.0163 272.6740
L310.0877 272.5312
" />
<path d="M310.0877 272.5312
L310.1591 272.4598
" />
<path d="M310.1591 272.4598
L310.3020 272.3883
" />
<path d="M310.3020 272.3883
L310.5877 272.3883
" />
<path d="M310.5877 272.3883
L310.7305 272.4598
" />
<path d="M312.0163 273.3169
L311.8734 273.3883
" />
<path d="M311.8734 273.3883
L311.5877 273.3883
" />
<path d="M311.5877 273.3883
L311.4448 273.3169
" />
<path d="M311.4448 273.3169
L311.3734 273.1740
" />
<path d="M311.3734 273.1740
L311.3734 272.6026
" />
<path d="M311.3734 272.6026
L311.4448 272.4598
" />
<path d="M311.4448 272.4598
L311.5877 272.3883
" />
<path d="M311.5877 272.3883
L311.8734 272.3883
" />
<path d="M311.8734 272.3883
L312.0163 272.4598
" />
<path d="M312.0163 272.4598
L312.0877 272.6026
" />
<path d="M312.0877 272.6026
L312.0877 272.7455
" />
<path d="M312.0877 272.7455
L311.3734 272.8883
" />
<path d="M312.7305 273.3883
L312.7305 272.3883
" />
<path d="M312.7305 272.6740
L312.8020 272.5312
" />
<path d="M312.8020 272.5312
L312.8734 272.4598
" />
<path d="M312.8734 272.4598
L313.0163 272.3883
" />
<path d="M313.0163 272.3883
L313.1591 272.3883
" />
<path d="M313.3020 273.5312
L314.4448 273.5312
" />
<path d="M314.8020 273.3883
L314.8020 272.3883
" />
<path d="M314.8020 272.6740
L314.8734 272.5312
" />
<path d="M314.8734 272.5312
L314.9448 272.4598
" />
<path d="M314.9448 272.4598
L315.0877 272.3883
" />
<path d="M315.0877 272.3883
L315.2305 272.3883
" />
<path d="M316.3020 273.3169
L316.1591 273.3883
" />
<path d="M316.1591 273.3883
L315.8734 273.3883
" />
<path d="M315.8734 273.3883
L315.7305 273.3169
" />
<path d="M315.7305 273.3169
L315.6591 273.1740
" />
<path d="M315.6591 273.1740
L315.6591 272.6026
" />
<path d="M315.6591 272.6026
L315.7305 272.4598
" />
<path d="M315.7305 272.4598
L315.8734 272.3883
" />
<path d="M315.8734 272.3883
L316.1591 272.3883
" />
<path d="M316.1591 272.3883
L316.3020 272.4598
" />
<path d="M316.3020 272.4598
L316.3734 272.6026
" />
<path d="M316.3734 272.6026
L316.3734 272.7455
" />
<path d="M316.3734 272.7455
L315.6591 272.8883
" />
<path d="M316.8734 272.3883
L317.2305 273.3883
" />
<path d="M317.2305 273.3883
L317.5877 272.3883
" />
<path d="M317.8020 273.5312
L318.9448 273.5312
" />
<path d="M320.0877 273.3883
L319.2305 273.3883
" />
<path d="M319.6591 273.3883
L319.6591 271.8883
" />
<path d="M319.6591 271.8883
L319.5163 272.1026
" />
<path d="M319.5163 272.1026
L319.3734 272.2455
" />
<path d="M319.3734 272.2455
L319.2305 272.3169
" />
<path d="M320.3734 273.5312
L321.5163 273.5312
" />
<path d="M322.1591 271.8883
L322.3020 271.8883
" />
<path d="M322.3020 271.8883
L322.4448 271.9598
" />
<path d="M322.4448 271.9598
L322.5163 272.0312
" />
<path d="M322.5163 272.0312
L322.5877 272.1740
" />
<path d="M322.5877 272.1740
L322.6591 272.4598
" />
<path d="M322.6591 272.4598
L322.6591 272.8169
" />
<path d="M322.6591 272.8169
L322.5877 273.1026
" />
<path d="M322.5877 273.1026
L322.5163 273.2455
" />
<path d="M322.5163 273.2455
L322.4448 273.3169
" />
<path d="M322.4448 273.3169
L322.3020 273.3883
" />
<path d="M322.3020 273.3883
L322.1591 273.3883
" />
<path d="M322.1591 273.3883
L322.0163 273.3169
" />
<path d="M322.0163 273.3169
L321.9448 273.2455
" />
<path d="M321.9448 273.2455
L321.8734 273.1026
" />
<path d="M321.8734 273.1026
L321.8020 272.8169
" />
<path d="M321.8020 272.8169
L321.8020 272.4598
" />
<path d="M321.8020 272.4598
L321.8734 272.1740
" />
<path d="M321.8734 272.1740
L321.9448 272.0312
" />
<path d="M321.9448 272.0312
L322.0163 271.9598
" />
<path d="M322.0163 271.9598
L322.1591 271.8883
" />
<path d="M323.3020 273.2455
L323.3734 273.3169
" />
<path d="M323.3734 273.3169
L323.3020 273.3883
" />
<path d="M323.3020 273.3883
L323.2305 273.3169
" />
<path d="M323.2305 273.3169
L323.3020 273.2455
" />
<path d="M323.3020 273.2455
L323.3020 273.3883
" />
<path d="M324.0163 273.3883
L324.0163 271.8883
" />
<path d="M324.1591 272.8169
L324.5877 273.3883
" />
<path d="M324.5877 272.3883
L324.0163 272.9598
" />
<path d="M325.2305 273.3883
L325.2305 272.3883
" />
<path d="M325.2305 271.8883
L325.1591 271.9598
" />
<path d="M325.1591 271.9598
L325.2305 272.0312
" />
<path d="M325.2305 272.0312
L325.3020 271.9598
" />
<path d="M325.3020 271.9598
L325.2305 271.8883
" />
<path d="M325.2305 271.8883
L325.2305 272.0312
" />
<path d="M326.5877 273.3169
L326.4448 273.3883
" />
<path d="M326.4448 273.3883
L326.1591 273.3883
" />
<path d="M326.1591 273.3883
L326.0163 273.3169
" />
<path d="M326.0163 273.3169
L325.9448 273.2455
" />
<path d="M325.9448 273.2455
L325.8734 273.1026
" />
<path d="M325.8734 273.1026
L325.8734 272.6740
" />
<path d="M325.8734 272.6740
L325.9448 272.5312
" />
<path d="M325.9448 272.5312
L326.0163 272.4598
" />
<path d="M326.0163 272.4598
L326.1591 272.3883
" />
<path d="M326.1591 272.3883
L326.4448 272.3883
" />
<path d="M326.4448 272.3883
L326.5877 272.4598
" />
<path d="M327.8734 273.3883
L327.8734 272.6026
" />
<path d="M327.8734 272.6026
L327.8020 272.4598
" />
<path d="M327.8020 272.4598
L327.6591 272.3883
" />
<path d="M327.6591 272.3883
L327.3734 272.3883
" />
<path d="M327.3734 272.3883
L327.2305 272.4598
" />
<path d="M327.8734 273.3169
L327.7305 273.3883
" />
<path d="M327.7305 273.3883
L327.3734 273.3883
" />
<path d="M327.3734 273.3883
L327.2305 273.3169
" />
<path d="M327.2305 273.3169
L327.1591 273.1740
" />
<path d="M327.1591 273.1740
L327.1591 273.0312
" />
<path d="M327.1591 273.0312
L327.2305 272.8883
" />
<path d="M327.2305 272.8883
L327.3734 272.8169
" />
<path d="M327.3734 272.8169
L327.7305 272.8169
" />
<path d="M327.7305 272.8169
L327.8734 272.7455
" />
<path d="M329.2305 273.3883
L329.2305 271.8883
" />
<path d="M329.2305 273.3169
L329.0877 273.3883
" />
<path d="M329.0877 273.3883
L328.8020 273.3883
" />
<path d="M328.8020 273.3883
L328.6591 273.3169
" />
<path d="M328.6591 273.3169
L328.5877 273.2455
" />
<path d="M328.5877 273.2455
L328.5163 273.1026
" />
<path d="M328.5163 273.1026
L328.5163 272.6740
" />
<path d="M328.5163 272.6740
L328.5877 272.5312
" />
<path d="M328.5877 272.5312
L328.6591 272.4598
" />
<path d="M328.6591 272.4598
L328.8020 272.3883
" />
<path d="M328.8020 272.3883
L329.0877 272.3883
" />
<path d="M329.0877 272.3883
L329.2305 272.4598
" />
<path d="M329.5877 273.5312
L330.7305 273.5312
" />
<path d="M331.0877 272.3883
L331.0877 273.8883
" />
<path d="M331.0877 272.4598
L331.2305 272.3883
" />
<path d="M331.2305 272.3883
L331.5163 272.3883
" />
<path d="M331.5163 272.3883
L331.6591 272.4598
" />
<path d="M331.6591 272.4598
L331.7305 272.5312
" />
<path d="M331.7305 272.5312
L331.8020 272.6740
" />
<path d="M331.8020 272.6740
L331.8020 273.1026
" />
<path d="M331.8020 273.1026
L331.7305 273.2455
" />
<path d="M331.7305 273.2455
L331.6591 273.3169
" />
<path d="M331.6591 273.3169
L331.5163 273.3883
" />
<path d="M331.5163 273.3883
L331.2305 273.3883
" />
<path d="M331.2305 273.3883
L331.0877 273.3169
" />
<path d="M333.0877 273.3169
L332.9448 273.3883
" />
<path d="M332.9448 273.3883
L332.6591 273.3883
" />
<path d="M332.6591 273.3883
L332.5163 273.3169
" />
<path d="M332.5163 273.3169
L332.4448 273.2455
" />
<path d="M332.4448 273.2455
L332.3734 273.1026
" />
<path d="M332.3734 273.1026
L332.3734 272.6740
" />
<path d="M332.3734 272.6740
L332.4448 272.5312
" />
<path d="M332.4448 272.5312
L332.5163 272.4598
" />
<path d="M332.5163 272.4598
L332.6591 272.3883
" />
<path d="M332.6591 272.3883
L332.9448 272.3883
" />
<path d="M332.9448 272.3883
L333.0877 272.4598
" />
<path d="M333.7305 273.3883
L333.7305 271.8883
" />
<path d="M333.7305 272.4598
L333.8734 272.3883
" />
<path d="M333.8734 272.3883
L334.1591 272.3883
" />
<path d="M334.1591 272.3883
L334.3020 272.4598
" />
<path d="M334.3020 272.4598
L334.3734 272.5312
" />
<path d="M334.3734 272.5312
L334.4448 272.6740
" />
<path d="M334.4448 272.6740
L334.4448 273.1026
" />
<path d="M334.4448 273.1026
L334.3734 273.2455
" />
<path d="M334.3734 273.2455
L334.3020 273.3169
" />
<path d="M334.3020 273.3169
L334.1591 273.3883
" />
<path d="M334.1591 273.3883
L333.8734 273.3883
" />
<path d="M333.8734 273.3883
L333.7305 273.3169
" />
</g></g>
<g style="fill:none; 
stroke:#000000; stroke-width:0.1500; stroke-opacity:1; 
stroke-linecap:round; stroke-linejoin:round;">
<path d="M299.9890 268.5022
L407.9890 268.5022
" />
</g>
<g style="fill:none; 
stroke:#000000; stroke-width:0.1500; stroke-opacity:1; 
stroke-linecap:round; stroke-linejoin:round;">
<text x="300.9890" y="270.7522"
textLength="8.2214" font-size="2.0000" lengthAdjust="spacingAndGlyphs"
text-anchor="start" opacity="0">Sheet: </text>
<g class="stroked-text"><desc>Sheet: </desc>
<path d="M301.3734 270.6169
L301.5877 270.6883
" />
<path d="M301.5877 270.6883
L301.9448 270.6883
" />
<path d="M301.9448 270.6883
L302.0877 270.6169
" />
<path d="M302.0877 270.6169
L302.1591 270.5455
" />
<path d="M302.1591 270.5455
L302.2305 270.4026
" />
<path d="M302.2305 270.4026
L302.2305 270.2598
" />
<path d="M302.2305 270.2598
L302.1591 270.1169
" />
<path d="M302.1591 270.1169
L302.0877 270.0455
" />
<path d="M302.0877 270.0455
L301.9448 269.9740
" />
<path d="M301.9448 269.9740
L301.6591 269.9026
" />
<path d="M301.6591 269.9026
L301.5163 269.8312
" />
<path d="M301.5163 269.8312
L301.4448 269.7598
" />
<path d="M301.4448 269.7598
L301.3734 269.6169
" />
<path d="M301.3734 269.6169
L301.3734 269.4740
" />
<path d="M301.3734 269.4740
L301.4448 269.3312
" />
<path d="M301.4448 269.3312
L301.5163 269.2598
" />
<path d="M301.5163 269.2598
L301.6591 269.1883
" />
<path d="M301.6591 269.1883
L302.0163 269.1883
" />
<path d="M302.0163 269.1883
L302.2305 269.2598
" />
<path d="M302.8734 270.6883
L302.8734 269.1883
" />
<path d="M303.5163 270.6883
L303.5163 269.9026
" />
<path d="M303.5163 269.9026
L303.4448 269.7598
" />
<path d="M303.4448 269.7598
L303.3020 269.6883
" />
<path d="M303.3020 269.6883
L303.0877 269.6883
" />
<path d="M303.0877 269.6883
L302.9448 269.7598
" />
<path d="M302.9448 269.7598
L302.8734 269.8312
" />
<path d="M304.8020 270.6169
L304.6591 270.6883
" />
<path d="M304.6591 270.6883
L304.3734 270.6883
" />
<path d="M304.3734 270.6883
L304.2305 270.6169
" />
<path d="M304.2305 270.6169
L304.1591 270.4740
" />
<path d="M304.1591 270.4740
L304.1591 269.9026
" />
<path d="M304.1591 269.9026
L304.2305 269.7598
" />
<path d="M304.2305 269.7598
L304.3734 269.6883
" />
<path d="M304.3734 269.6883
L304.6591 269.6883
" />
<path d="M304.6591 269.6883
L304.8020 269.7598
" />
<path d="M304.8020 269.7598
L304.8734 269.9026
" />
<path d="M304.8734 269.9026
L304.8734 270.0455
" />
<path d="M304.8734 270.0455
L304.1591 270.1883
" />
<path d="M306.0877 270.6169
L305.9448 270.6883
" />
<path d="M305.9448 270.6883
L305.6591 270.6883
" />
<path d="M305.6591 270.6883
L305.5163 270.6169
" />
<path d="M305.5163 270.6169
L305.4448 270.4740
" />
<path d="M305.4448 270.4740
L305.4448 269.9026
" />
<path d="M305.4448 269.9026
L305.5163 269.7598
" />
<path d="M305.5163 269.7598
L305.6591 269.6883
" />
<path d="M305.6591 269.6883
L305.9448 269.6883
" />
<path d="M305.9448 269.6883
L306.0877 269.7598
" />
<path d="M306.0877 269.7598
L306.1591 269.9026
" />
<path d="M306.1591 269.9026
L306.1591 270.0455
" />
<path d="M306.1591 270.0455
L305.4448 270.1883
" />
<path d="M306.5877 269.6883
L307.1591 269.6883
" />
<path d="M306.8020 269.1883
L306.8020 270.4740
" />
<path d="M306.8020 270.4740
L306.8734 270.6169
" />
<path d="M306.8734 270.6169
L307.0163 270.6883
" />
<path d="M307.0163 270.6883
L307.1591 270.6883
" />
<path d="M307.6591 270.5455
L307.7305 270.6169
" />
<path d="M307.7305 270.6169
L307.6591 270.6883
" />
<path d="M307.6591 270.6883
L307.5877 270.6169
" />
<path d="M307.5877 270.6169
L307.6591 270.5455
" />
<path d="M307.6591 270.5455
L307.6591 270.6883
" />
<path d="M307.6591 269.7598
L307.7305 269.8312
" />
<path d="M307.7305 269.8312
L307.6591 269.9026
" />
<path d="M307.6591 269.9026
L307.5877 269.8312
" />
<path d="M307.5877 269.8312
L307.6591 269.7598
" />
<path d="M307.6591 269.7598
L307.6591 269.9026
" />
</g></g>
<g style="fill:none; 
stroke:#000000; stroke-width:0.3000; stroke-opacity:1; 
stroke-linecap:round; stroke-linejoin:round;">
<text x="300.9890" y="267.7522"
textLength="0.9000" font-size="2.0000" lengthAdjust="spacingAndGlyphs"
text-anchor="start" opacity="0"></text>
<g class="stroked-text"><desc></desc>
</g></g>
<g style="fill:none; 
stroke:#000000; stroke-width:0.1500; stroke-opacity:1; 
stroke-linecap:round; stroke-linejoin:round;">
<text x="300.9890" y="264.7522"
textLength="0.4500" font-size="2.0000" lengthAdjust="spacingAndGlyphs"
text-anchor="start" opacity="0"></text>
<g class="stroked-text"><desc></desc>
</g></g>
<g style="fill:none; 
stroke:#000000; stroke-width:0.1500; stroke-opacity:1; 
stroke-linecap:round; stroke-linejoin:round;">
<text x="300.9890" y="261.7522"
textLength="0.4500" font-size="2.0000" lengthAdjust="spacingAndGlyphs"
text-anchor="start" opacity="0"></text>
<g class="stroked-text"><desc></desc>
</g></g>
<g style="fill:none; 
stroke:#000000; stroke-width:0.1500; stroke-opacity:1; 
stroke-linecap:round; stroke-linejoin:round;">
<text x="300.9890" y="258.7522"
textLength="0.4500" font-size="2.0000" lengthAdjust="spacingAndGlyphs"
text-anchor="start" opacity="0"></text>
<g class="stroked-text"><desc></desc>
</g></g>
<g style="fill:none; 
stroke:#000000; stroke-width:0.1500; stroke-opacity:1; 
stroke-linecap:round; stroke-linejoin:round;">
<text x="300.9890" y="255.7522"
textLength="0.4500" font-size="2.0000" lengthAdjust="spacingAndGlyphs"
text-anchor="start" opacity="0"></text>
<g class="stroked-text"><desc></desc>
</g></g>
<g style="fill:none; 
stroke:#000000; stroke-width:0.1500; stroke-opacity:1; 
stroke-linecap:round; stroke-linejoin:round;">
<path d="M319.9890 278.5022
L319.9890 281.5022
" />
</g>
<g style="fill:none; 
stroke:#000000; stroke-width:0.1500; stroke-opacity:1; 
stroke-linecap:round; stroke-linejoin:round;">
<path d="M383.9890 278.5022
L383.9890 285.0022
" />
</g>
<g style="fill:none; 
stroke:#F2EDA1; stroke-width:0.1000; stroke-opacity:1; 
stroke-linecap:round; stroke-linejoin:round;">
<circle cx="91.0590" cy="75.0570" r="5.4846" /> 
<circle cx="91.0354" cy="92.5830" r="5.4846" /> 
<circle cx="91.0354" cy="110.1090" r="5.4846" /> 
</g>
<g style="fill:none; 
stroke:#F2EDA1; stroke-width:0.2000; stroke-opacity:1; 
stroke-linecap:round; stroke-linejoin:round;">
<path d="M124.5180 209.3297
L129.5980 209.3297
" />
<path d="M114.3580 209.3297
L119.4380 209.3297
" />
<path d="M126.4230 205.5197
L129.5980 205.5197
" />
<path d="M114.3580 205.5197
L117.5330 205.5197
" />
<path d="M124.5180 201.7097
L129.5980 201.7097
" />
<path d="M114.3580 201.7097
L119.4380 201.7097
" />
<path d="M126.4230 197.8997
L129.5980 197.8997
" />
<path d="M114.3580 197.8997
L117.5330 197.8997
" />
<path d="M124.5180 194.0897
L129.5980 194.0897
" />
<path d="M114.3580 194.0897
L119.4380 194.0897
" />
<path d="M126.4230 190.2797
L129.5980 190.2797
" />
<path d="M114.3580 190.2797
L117.5330 190.2797
" />
<path d="M124.5180 186.4697
L129.5980 186.4697
" />
<path d="M114.3580 186.4697
L119.4380 186.4697
" />
<path d="M126.4230 182.6597
L129.5980 182.6597
" />
<path d="M114.3580 182.6597
L117.5330 182.6597
" />
<path d="M124.5180 178.8497
L129.5980 178.8497
" />
<path d="M114.3580 178.8497
L119.4380 178.8497
" />
<path d="M126.4230 175.0397
L129.5980 175.0397
" />
<path d="M114.3580 175.0397
L117.5330 175.0397
" />
<path d="M124.5180 171.2297
L129.5980 171.2297
" />
<path d="M114.3580 171.2297
L119.4380 171.2297
" />
<path d="M126.4230 167.4197
L129.5980 167.4197
" />
<path d="M114.3580 167.4197
L117.5330 167.4197
" />
<path d="M124.5180 163.6097
L129.5980 163.6097
" />
<path d="M114.3580 163.6097
L119.4380 163.6097
" />
<path d="M126.4230 159.7997
L129.5980 159.7997
" />
<path d="M114.3580 159.7997
L117.5330 159.7997
" />
<path d="M124.5180 155.9897
L129.5980 155.9897
" />
<path d="M114.3580 155.9897
L119.4380 155.9897
" />
<path d="M126.4230 152.1797
L129.5980 152.1797
" />
<path d="M114.3580 152.1797
L117.5330 152.1797
" />
</g>
<g style="fill:none; 
stroke:#F2EDA1; stroke-width:0.4000; stroke-opacity:1; 
stroke-linecap:round; stroke-linejoin:round;">
<path d="M124.5180 148.3697
L129.5980 148.3697
" />
<path d="M114.3580 148.3697
L119.4380 148.3697
" />
</g>
<g style="fill:none; 
stroke:#F2EDA1; stroke-width:0.2000; stroke-opacity:1; 
stroke-linecap:round; stroke-linejoin:round;">
<path d="M129.5980 144.5597
L126.4230 144.5597
" />
<path d="M117.5330 144.5597
L114.3580 144.5597
" />
<path d="M129.5980 140.7497
L124.5180 140.7497
" />
<path d="M119.4380 140.7497
L114.3580 140.7497
" />
<path d="M129.5980 136.9397
L126.4230 136.9397
" />
<path d="M117.5330 136.9397
L114.3580 136.9397
" />
<path d="M129.5980 133.1297
L124.5180 133.1297
" />
<path d="M119.4380 133.1297
L114.3580 133.1297
" />
<path d="M129.5980 129.3197
L126.4230 129.3197
" />
<path d="M117.5330 129.3197
L114.3580 129.3197
" />
<path d="M129.5980 125.5097
L124.5180 125.5097
" />
<path d="M119.4380 125.5097
L114.3580 125.5097
" />
<path d="M129.5980 121.6997
L126.4230 121.6997
" />
<path d="M117.5330 121.6997
L114.3580 121.6997
" />
<path d="M129.5980 117.8897
L124.5180 117.8897
" />
<path d="M119.4380 117.8897
L114.3580 117.8897
" />
<path d="M129.5980 114.0797
L126.4230 114.0797
" />
<path d="M117.5330 114.0797
L114.3580 114.0797
" />
<path d="M129.5980 110.2697
L124.5180 110.2697
" />
<path d="M119.4380 110.2697
L114.3580 110.2697
" />
<path d="M129.5980 106.4597
L126.4230 106.4597
" />
<path d="M117.5330 106.4597
L114.3580 106.4597
" />
<path d="M129.5980 102.6497
L124.5180 102.6497
" />
<path d="M119.4380 102.6497
L114.3580 102.6497
" />
<path d="M129.5980 98.8397
L126.4230 98.8397
" />
<path d="M117.5330 98.8397
L114.3580 98.8397
" />
<path d="M129.5980 95.0297
L124.5180 95.0297
" />
<path d="M119.4380 95.0297
L114.3580 95.0297
" />
<path d="M129.5980 91.2197
L126.4230 91.2197
" />
<path d="M117.5330 91.2197
L114.3580 91.2197
" />
<path d="M129.5980 87.4097
L124.5180 87.4097
" />
<path d="M119.4380 87.4097
L114.3580 87.4097
" />
<path style="fill:#F2EDA1; fill-opacity:1.0000; 
stroke:#F2EDA1; stroke-width:0.1000; stroke-opacity:1; 
stroke-linecap:round; stroke-linejoin:round;fill-rule:evenodd;"
d="M 121.3430,88.6797
122.6130,88.6797
122.6130,208.0597
121.3430,208.0597
Z" /> 
</g>
<g style="fill:none; 
stroke:#F2EDA1; stroke-width:0.2000; stroke-opacity:1; 
stroke-linecap:round; stroke-linejoin:round;">
<path d="M90.6190 209.5797
L85.5390 209.5797
" />
<path d="M76.3315 209.5797
L81.4115 209.5797
" />
<path d="M90.6190 207.0397
L87.4440 207.0397
" />
<path d="M76.3315 207.0397
L79.5065 207.0397
" />
<path d="M90.6190 204.4997
L85.5390 204.4997
" />
<path d="M76.3315 204.4997
L81.4115 204.4997
" />
<path d="M90.6190 201.9597
L87.4440 201.9597
" />
<path d="M76.3315 201.9597
L79.5065 201.9597
" />
<path d="M90.6190 199.4197
L85.5390 199.4197
" />
<path d="M76.3315 199.4197
L81.4115 199.4197
" />
<path d="M90.6190 196.8797
L87.4440 196.8797
" />
<path d="M76.3315 196.8797
L79.5065 196.8797
" />
<path d="M90.6190 194.3397
L85.5390 194.3397
" />
<path d="M76.3315 194.3397
L81.4115 194.3397
" />
<path d="M76.3315 191.7997
L79.5065 191.7997
" />
<path d="M90.6190 191.7997
L87.4440 191.7997
" />
<path d="M76.3315 189.2597
L81.4115 189.2597
" />
<path d="M90.6190 189.2597
L85.5390 189.2597
" />
<path d="M90.6190 186.7197
L87.4440 186.7197
" />
<path d="M76.3315 186.7197
L79.5065 186.7197
" />
</g>
<g style="fill:none; 
stroke:#F2EDA1; stroke-width:0.4000; stroke-opacity:1; 
stroke-linecap:round; stroke-linejoin:round;">
<path d="M90.6190 184.1797
L85.5390 184.1797
" />
<path d="M81.7290 184.1797
L76.6490 184.1797
" />
</g>
<g style="fill:none; 
stroke:#F2EDA1; stroke-width:0.2000; stroke-opacity:1; 
stroke-linecap:round; stroke-linejoin:round;">
<path d="M90.6190 181.6397
L87.4440 181.6397
" />
<path d="M76.3315 181.6397
L79.5065 181.6397
" />
<path d="M76.3315 179.0997
L81.4115 179.0997
" />
<path d="M90.6190 179.0997
L85.5390 179.0997
" />
<path d="M90.6190 176.5597
L87.4440 176.5597
" />
<path d="M76.3315 176.5597
L79.5065 176.5597
" />
<path d="M90.6190 174.0197
L85.5390 174.0197
" />
<path d="M76.3315 174.0197
L81.4115 174.0197
" />
<path d="M90.6190 171.4797
L87.4440 171.4797
" />
<path d="M76.3315 171.4797
L79.5065 171.4797
" />
<path d="M90.6190 168.9397
L85.5390 168.9397
" />
<path d="M76.3315 168.9397
L81.4115 168.9397
" />
<path d="M90.6190 166.3997
L87.4440 166.3997
" />
<path d="M76.3315 166.3997
L79.5065 166.3997
" />
<path d="M90.6190 163.8597
L85.5390 163.8597
" />
<path d="M76.3315 163.8597
L81.4115 163.8597
" />
<path d="M90.6190 161.3197
L87.4440 161.3197
" />
<path d="M76.3315 161.3197
L79.5065 161.3197
" />
<path d="M90.6190 158.7797
L85.5390 158.7797
" />
<path d="M76.3315 158.7797
L81.4115 158.7797
" />
<path style="fill:#F2EDA1; fill-opacity:1.0000; 
stroke:#F2EDA1; stroke-width:0.1000; stroke-opacity:1; 
stroke-linecap:round; stroke-linejoin:round;fill-rule:evenodd;"
d="M 83.3340,158.7797
83.9340,158.7797
83.9340,209.5797
83.3340,209.5797
Z" /> 
</g>
<g style="fill:none; 
stroke:#F2EDA1; stroke-width:0.3000; stroke-opacity:1; 
stroke-linecap:round; stroke-linejoin:round;">
<path d="M210.2830 62.4407
L210.2830 208.4907
" />
</g>
<g style="fill:none; 
stroke:#F2EDA1; stroke-width:0.2000; stroke-opacity:1; 
stroke-linecap:round; stroke-linejoin:round;">
<path d="M214.7280 207.8557
L212.8230 207.8557
" />
<path d="M207.7430 207.8557
L205.8380 207.8557
" />
<path d="M214.7280 204.0457
L211.5530 204.0457
" />
<path d="M209.0130 204.0457
L205.8380 204.0457
" />
<path d="M214.7280 200.2357
L212.8230 200.2357
" />
<path d="M207.7430 200.2357
L205.8380 200.2357
" />
<path d="M214.7280 196.4257
L211.5530 196.4257
" />
<path d="M209.0130 196.4257
L205.8380 196.4257
" />
<path d="M214.7280 192.6157
L212.8230 192.6157
" />
<path d="M207.7430 192.6157
L205.8380 192.6157
" />
<path d="M214.7280 188.8057
L211.5530 188.8057
" />
<path d="M209.0130 188.8057
L205.8380 188.8057
" />
<path d="M214.7280 184.9957
L212.8230 184.9957
" />
<path d="M207.7430 184.9957
L205.8380 184.9957
" />
<path d="M214.7280 181.1857
L211.5530 181.1857
" />
<path d="M209.0130 181.1857
L205.8380 181.1857
" />
<path d="M214.7280 177.3757
L212.8230 177.3757
" />
<path d="M207.7430 177.3757
L205.8380 177.3757
" />
<path d="M214.7280 173.5657
L211.5530 173.5657
" />
<path d="M209.0130 173.5657
L205.8380 173.5657
" />
<path d="M214.7280 169.7557
L212.8230 169.7557
" />
<path d="M207.7430 169.7557
L205.8380 169.7557
" />
<path d="M214.7280 165.9457
L211.5530 165.9457
" />
<path d="M209.0130 165.9457
L205.8380 165.9457
" />
<path d="M214.7280 162.1357
L212.8230 162.1357
" />
<path d="M207.7430 162.1357
L205.8380 162.1357
" />
<path d="M214.7280 158.3257
L211.5530 158.3257
" />
<path d="M209.0130 158.3257
L205.8380 158.3257
" />
<path d="M214.7280 154.5157
L212.8230 154.5157
" />
<path d="M207.7430 154.5157
L205.8380 154.5157
" />
<path d="M214.7280 150.7057
L211.5530 150.7057
" />
<path d="M209.0130 150.7057
L205.8380 150.7057
" />
<path d="M214.7280 146.8957
L212.8230 146.8957
" />
<path d="M207.7430 146.8957
L205.8380 146.8957
" />
<path d="M214.7280 143.0857
L211.5530 143.0857
" />
<path d="M209.0130 143.0857
L205.8380 143.0857
" />
<path d="M214.7280 139.2757
L212.8230 139.2757
" />
<path d="M207.7430 139.2757
L205.8380 139.2757
" />
</g>
<g style="fill:none; 
stroke:#F2EDA1; stroke-width:0.4000; stroke-opacity:1; 
stroke-linecap:round; stroke-linejoin:round;">
<path d="M214.7280 135.4657
L211.5530 135.4657
" />
<path d="M209.0130 135.4657
L205.8380 135.4657
" />
</g>
<g style="fill:none; 
stroke:#F2EDA1; stroke-width:0.2000; stroke-opacity:1; 
stroke-linecap:round; stroke-linejoin:round;">
<path d="M212.8230 131.6557
L214.7280 131.6557
" />
<path d="M205.8380 131.6557
L207.7430 131.6557
" />
<path d="M211.5530 127.8457
L214.7280 127.8457
" />
<path d="M205.8380 127.8457
L209.0130 127.8457
" />
<path d="M212.8230 124.0357
L214.7280 124.0357
" />
<path d="M205.8380 124.0357
L207.7430 124.0357
" />
<path d="M205.8380 120.2257
L209.0130 120.2257
" />
<path d="M211.5530 120.2257
L214.7280 120.2257
" />
<path d="M212.8230 116.4157
L214.7280 116.4157
" />
<path d="M205.8380 116.4157
L207.7430 116.4157
" />
<path d="M211.5530 112.6057
L214.7280 112.6057
" />
<path d="M205.8380 112.6057
L209.0130 112.6057
" />
<path d="M212.8230 108.7957
L214.7280 108.7957
" />
<path d="M205.8380 108.7957
L207.7430 108.7957
" />
<path d="M211.5530 104.9857
L214.7280 104.9857
" />
<path d="M205.8380 104.9857
L209.0130 104.9857
" />
<path d="M212.8230 101.1757
L214.7280 101.1757
" />
<path d="M205.8380 101.1757
L207.7430 101.1757
" />
<path d="M205.8380 97.3657
L209.0130 97.3657
" />
<path d="M211.5530 97.3657
L214.7280 97.3657
" />
<path d="M212.8230 93.5557
L214.7280 93.5557
" />
<path d="M205.8380 93.5557
L207.7430 93.5557
" />
<path d="M211.5530 89.7457
L214.7280 89.7457
" />
<path d="M205.8380 89.7457
L209.0130 89.7457
" />
<path d="M212.8230 85.9357
L214.7280 85.9357
" />
<path d="M205.8380 85.9357
L207.7430 85.9357
" />
<path d="M211.5530 82.1257
L214.7280 82.1257
" />
<path d="M205.8380 82.1257
L209.0130 82.1257
" />
<path d="M212.8230 78.3157
L214.7280 78.3157
" />
<path d="M205.8380 78.3157
L207.7430 78.3157
" />
<path d="M205.8380 74.5057
L209.0130 74.5057
" />
<path d="M211.5530 74.5057
L214.7280 74.5057
" />
<path d="M212.8230 70.6957
L214.7280 70.6957
" />
<path d="M205.8380 70.6957
L207.7430 70.6957
" />
<path d="M211.5530 66.8857
L214.7280 66.8857
" />
<path d="M205.8380 66.8857
L209.0130 66.8857
" />
<path d="M212.8230 63.0757
L214.7280 63.0757
" />
<path d="M205.8380 63.0757
L207.7430 63.0757
" />
<path d="M181.7250 207.9597
L178.5500 207.9597
" />
<path d="M170.9300 207.9597
L167.7550 207.9597
" />
<path d="M181.7250 204.1497
L176.6450 204.1497
" />
<path d="M172.8350 204.1497
L167.7550 204.1497
" />
<path d="M181.7250 200.3397
L178.5500 200.3397
" />
<path d="M170.9300 200.3397
L167.7550 200.3397
" />
<path d="M181.7250 196.5297
L176.6450 196.5297
" />
<path d="M172.8350 196.5297
L167.7550 196.5297
" />
<path d="M181.7250 192.7197
L178.5500 192.7197
" />
<path d="M170.9300 192.7197
L167.7550 192.7197
" />
<path d="M181.7250 188.9097
L176.6450 188.9097
" />
<path d="M172.8350 188.9097
L167.7550 188.9097
" />
<path d="M181.7250 185.0997
L178.5500 185.0997
" />
<path d="M170.9300 185.0997
L167.7550 185.0997
" />
<path d="M181.7250 181.2897
L176.6450 181.2897
" />
<path d="M172.8350 181.2897
L167.7550 181.2897
" />
<path d="M181.7250 177.4797
L178.5500 177.4797
" />
<path d="M170.9300 177.4797
L167.7550 177.4797
" />
<path d="M181.7250 173.6697
L176.6450 173.6697
" />
<path d="M172.8350 173.6697
L167.7550 173.6697
" />
<path d="M181.7250 169.8597
L178.5500 169.8597
" />
<path d="M170.9300 169.8597
L167.7550 169.8597
" />
<path d="M181.7250 166.0497
L176.6450 166.0497
" />
<path d="M172.8350 166.0497
L167.7550 166.0497
" />
<path d="M181.7250 162.2397
L178.5500 162.2397
" />
<path d="M170.9300 162.2397
L167.7550 162.2397
" />
<path d="M181.7250 158.4297
L176.6450 158.4297
" />
<path d="M172.8350 158.4297
L167.7550 158.4297
" />
<path d="M181.7250 154.6197
L178.5500 154.6197
" />
<path d="M170.9300 154.6197
L167.7550 154.6197
" />
<path d="M181.7250 150.8097
L176.6450 150.8097
" />
<path d="M172.8350 150.8097
L167.7550 150.8097
" />
<path d="M181.7250 146.9997
L178.5500 146.9997
" />
<path d="M170.9300 146.9997
L167.7550 146.9997
" />
<path d="M181.7250 143.1897
L176.6450 143.1897
" />
<path d="M172.8350 143.1897
L167.7550 143.1897
" />
<path d="M181.7250 139.3797
L178.5500 139.3797
" />
<path d="M170.9300 139.3797
L167.7550 139.3797
" />
</g>
<g style="fill:none; 
stroke:#F2EDA1; stroke-width:0.4000; stroke-opacity:1; 
stroke-linecap:round; stroke-linejoin:round;">
<path d="M181.7250 135.5697
L176.6450 135.5697
" />
<path d="M172.8350 135.5697
L167.7550 135.5697
" />
</g>
<g style="fill:none; 
stroke:#F2EDA1; stroke-width:0.2000; stroke-opacity:1; 
stroke-linecap:round; stroke-linejoin:round;">
<path d="M178.5500 131.7597
L181.7250 131.7597
" />
<path d="M167.7550 131.7597
L170.9300 131.7597
" />
<path d="M176.6450 127.9497
L181.7250 127.9497
" />
<path d="M167.7550 127.9497
L172.8350 127.9497
" />
<path d="M178.5500 124.1397
L181.7250 124.1397
" />
<path d="M167.7550 124.1397
L170.9300 124.1397
" />
<path d="M167.7550 120.3297
L172.8350 120.3297
" />
<path d="M176.6450 120.3297
L181.7250 120.3297
" />
<path d="M178.5500 116.5197
L181.7250 116.5197
" />
<path d="M167.7550 116.5197
L170.9300 116.5197
" />
<path d="M176.6450 112.7097
L181.7250 112.7097
" />
<path d="M167.7550 112.7097
L172.8350 112.7097
" />
<path d="M178.5500 108.8997
L181.7250 108.8997
" />
<path d="M167.7550 108.8997
L170.9300 108.8997
" />
<path d="M176.6450 105.0897
L181.7250 105.0897
" />
<path d="M167.7550 105.0897
L172.8350 105.0897
" />
<path d="M178.5500 101.2797
L181.7250 101.2797
" />
<path d="M167.7550 101.2797
L170.9300 101.2797
" />
<path d="M167.7550 97.4697
L172.8350 97.4697
" />
<path d="M176.6450 97.4697
L181.7250 97.4697
" />
<path d="M178.5500 93.6597
L181.7250 93.6597
" />
<path d="M167.7550 93.6597
L170.9300 93.6597
" />
<path d="M176.6450 89.8497
L181.7250 89.8497
" />
<path d="M167.7550 89.8497
L172.8350 89.8497
" />
<path d="M178.5500 86.0397
L181.7250 86.0397
" />
<path d="M167.7550 86.0397
L170.9300 86.0397
" />
<path d="M176.6450 82.2297
L181.7250 82.2297
" />
<path d="M167.7550 82.2297
L172.8350 82.2297
" />
<path d="M178.5500 78.4197
L181.7250 78.4197
" />
<path d="M167.7550 78.4197
L170.9300 78.4197
" />
<path d="M167.7550 74.6097
L172.8350 74.6097
" />
<path d="M176.6450 74.6097
L181.7250 74.6097
" />
<path d="M178.5500 70.7997
L181.7250 70.7997
" />
<path d="M167.7550 70.7997
L170.9300 70.7997
" />
<path d="M176.6450 66.9897
L181.7250 66.9897
" />
<path d="M167.7550 66.9897
L172.8350 66.9897
" />
<path d="M178.5500 63.1797
L181.7250 63.1797
" />
<path d="M167.7550 63.1797
L170.9300 63.1797
" />
<path style="fill:#F2EDA1; fill-opacity:1.0000; 
stroke:#F2EDA1; stroke-width:0.1000; stroke-opacity:1; 
stroke-linecap:round; stroke-linejoin:round;fill-rule:evenodd;"
d="M 174.4400,63.8147
175.3750,63.8147
175.3750,207.3247
174.4400,207.3247
Z" /> 
</g>
<g style="fill:none; 
stroke:#D0D2CD; stroke-width:0.0500; stroke-opacity:1; 
stroke-linecap:round; stroke-linejoin:round;">
<path d="M68.4390 59.8170
L236.1430 59.8170
" />
<path d="M68.4390 59.8170 A2.0000 2.0000 0.0 0 0 66.4390 61.8170" />
<path d="M66.4390 218.3450 A2.0000 2.0000 0.0 0 0 68.4390 220.3450" />
<path d="M236.1430 220.3450 A2.0000 2.0000 0.0 0 0 238.1430 218.3450" />
<path d="M238.1430 61.8170 A2.0000 2.0000 0.0 0 0 236.1430 59.8170" />
<path d="M236.1430 220.3450
L68.4390 220.3450
" />
<path d="M66.4390 218.3450
L66.4390 61.8170
" />
<path d="M238.1430 61.8170
L238.1430 218.3450
" />
</g> 
</svg>
